solid ImplictCADExport
facet normal -9.973086e-1 -2.709064e-3 7.3268116e-2
outer loop
vertex 1.5961366e2 1.2973856e2 2.3666662e-1
vertex 1.5961111e2 1.3067665e2 2.3666662e-1
vertex 1.596001e2 1.3067665e2 8.670786e-2
endloop
endfacet
facet normal 7.3999183e-7 2.932893e-7 -1.0e0
outer loop
vertex 1.5972295e2 1.3067665e2 -7.4505806e-8
vertex 1.5998473e2 1.3067665e2 1.19209105e-7
vertex 1.5998473e2 1.2986374e2 -1.1920929e-7
endloop
endfacet
facet normal -1.995439e-6 -5.875939e-7 -1.0e0
outer loop
vertex 1.5972295e2 1.3067665e2 -7.4505806e-8
vertex 1.5998473e2 1.2986374e2 -1.1920929e-7
vertex 1.5971939e2 1.3009277e2 2.7567148e-7
endloop
endfacet
facet normal -5.728861e-1 -6.636845e-1 -4.8096204e-1
outer loop
vertex 1.5998473e2 1.2986374e2 -1.1920929e-7
vertex 1.5998473e2 1.2969223e2 2.3666662e-1
vertex 1.5971939e2 1.3009277e2 2.7567148e-7
endloop
endfacet
facet normal -6.745222e-2 -5.402843e-1 -8.3877474e-1
outer loop
vertex 1.5998473e2 1.2969223e2 2.3666662e-1
vertex 1.5961366e2 1.2973856e2 2.3666662e-1
vertex 1.5971939e2 1.3009277e2 2.7567148e-7
endloop
endfacet
facet normal -8.4763634e-1 -9.5681705e-2 -5.2187884e-1
outer loop
vertex 1.5961366e2 1.2973856e2 2.3666662e-1
vertex 1.596001e2 1.3067665e2 8.670786e-2
vertex 1.5971939e2 1.3009277e2 2.7567148e-7
endloop
endfacet
facet normal -5.766412e-1 3.5107457e-3 -8.1699e-1
outer loop
vertex 1.596001e2 1.3067665e2 8.670786e-2
vertex 1.5972295e2 1.3067665e2 -7.4505806e-8
vertex 1.5971939e2 1.3009277e2 2.7567148e-7
endloop
endfacet
facet normal 0.0e0 1.381691e-7 -1.0e0
outer loop
vertex 1.5998473e2 1.3067665e2 1.19209105e-7
vertex 1.6066846e2 1.3067665e2 1.19209105e-7
vertex 1.6066846e2 1.298678e2 7.450581e-9
endloop
endfacet
facet normal 1.8350701e-7 2.932893e-7 -1.0e0
outer loop
vertex 1.5998473e2 1.3067665e2 1.19209105e-7
vertex 1.6066846e2 1.298678e2 7.450581e-9
vertex 1.5998473e2 1.2986374e2 -1.1920929e-7
endloop
endfacet
facet normal 4.8268978e-3 -8.130963e-1 -5.821093e-1
outer loop
vertex 1.5998473e2 1.2986374e2 -1.1920929e-7
vertex 1.6066846e2 1.298678e2 7.450581e-9
vertex 1.6066846e2 1.2969836e2 2.3666662e-1
endloop
endfacet
facet normal 7.2642355e-3 -8.097104e-1 -5.8678484e-1
outer loop
vertex 1.5998473e2 1.2986374e2 -1.1920929e-7
vertex 1.6066846e2 1.2969836e2 2.3666662e-1
vertex 1.5998473e2 1.2969223e2 2.3666662e-1
endloop
endfacet
facet normal -1.9554655e-7 1.381691e-7 -9.9999994e-1
outer loop
vertex 1.6066846e2 1.298678e2 7.450581e-9
vertex 1.6066846e2 1.3067665e2 1.19209105e-7
vertex 1.6097327e2 1.3067665e2 5.9604645e-8
endloop
endfacet
facet normal 1.907513e-1 -7.188298e-2 -9.7900295e-1
outer loop
vertex 1.6066846e2 1.298678e2 7.450581e-9
vertex 1.6097327e2 1.3067665e2 5.9604645e-8
vertex 1.6116829e2 1.3067665e2 3.7998736e-2
endloop
endfacet
facet normal 9.9681425e-1 7.836299e-2 1.48528e-2
outer loop
vertex 1.6116829e2 1.3067665e2 3.7998736e-2
vertex 1.6116533e2 1.3067665e2 2.3666662e-1
vertex 1.6121571e2 1.3003574e2 2.3666662e-1
endloop
endfacet
facet normal 7.924127e-1 -1.2634563e-1 -5.9675694e-1
outer loop
vertex 1.6116829e2 1.3067665e2 3.7998736e-2
vertex 1.6121571e2 1.3003574e2 2.3666662e-1
vertex 1.6102176e2 1.2993712e2 5.811453e-7
endloop
endfacet
facet normal 7.831006e-1 -4.025504e-1 -4.7403225e-1
outer loop
vertex 1.6121571e2 1.3003574e2 2.3666662e-1
vertex 1.61044e2 1.297017e2 2.3666662e-1
vertex 1.6102176e2 1.2993712e2 5.811453e-7
endloop
endfacet
facet normal 6.305826e-3 -7.086712e-1 -7.055106e-1
outer loop
vertex 1.61044e2 1.297017e2 2.3666662e-1
vertex 1.6066846e2 1.2969836e2 2.3666662e-1
vertex 1.6102176e2 1.2993712e2 5.811453e-7
endloop
endfacet
facet normal 1.5754642e-1 -8.0295134e-1 -5.748463e-1
outer loop
vertex 1.6066846e2 1.2969836e2 2.3666662e-1
vertex 1.6066846e2 1.298678e2 7.450581e-9
vertex 1.6102176e2 1.2993712e2 5.811453e-7
endloop
endfacet
facet normal -1.0471991e-2 5.3380154e-2 -9.985193e-1
outer loop
vertex 1.6066846e2 1.298678e2 7.450581e-9
vertex 1.6116829e2 1.3067665e2 3.7998736e-2
vertex 1.6102176e2 1.2993712e2 5.811453e-7
endloop
endfacet
facet normal -9.9904937e-1 -3.04033e-2 -3.1241834e-2
outer loop
vertex 1.5961111e2 1.3067665e2 2.3666662e-1
vertex 1.5958105e2 1.3166441e2 2.3666662e-1
vertex 1.5958583e2 1.3166441e2 8.3939955e-2
endloop
endfacet
facet normal -9.9721175e-1 -1.4198159e-2 7.326099e-2
outer loop
vertex 1.5961111e2 1.3067665e2 2.3666662e-1
vertex 1.5958583e2 1.3166441e2 8.3939955e-2
vertex 1.596001e2 1.3067665e2 8.670786e-2
endloop
endfacet
facet normal -5.4929745e-1 -1.02753155e-2 -8.355637e-1
outer loop
vertex 1.596001e2 1.3067665e2 8.670786e-2
vertex 1.5958583e2 1.3166441e2 8.3939955e-2
vertex 1.5971352e2 1.3166441e2 -1.937151e-7
endloop
endfacet
facet normal -5.7663596e-1 -5.5051064e-3 -8.1698257e-1
outer loop
vertex 1.596001e2 1.3067665e2 8.670786e-2
vertex 1.5971352e2 1.3166441e2 -1.937151e-7
vertex 1.5972295e2 1.3067665e2 -7.4505806e-8
endloop
endfacet
facet normal 1.153809e-6 -1.09671056e-7 -1.0e0
outer loop
vertex 1.5972295e2 1.3067665e2 -7.4505806e-8
vertex 1.5971352e2 1.3166441e2 -1.937151e-7
vertex 1.5998473e2 1.3166441e2 1.19209105e-7
endloop
endfacet
facet normal 7.3999183e-7 0.0e0 -1.0e0
outer loop
vertex 1.5972295e2 1.3067665e2 -7.4505806e-8
vertex 1.5998473e2 1.3166441e2 1.19209105e-7
vertex 1.5998473e2 1.3067665e2 1.19209105e-7
endloop
endfacet
facet normal 9.998617e-1 7.3830434e-3 1.489821e-2
outer loop
vertex 1.6115804e2 1.3166441e2 2.3666662e-1
vertex 1.6116533e2 1.3067665e2 2.3666662e-1
vertex 1.6116829e2 1.3067665e2 3.7998736e-2
endloop
endfacet
facet normal 9.997938e-1 1.3440994e-2 -1.5224996e-2
outer loop
vertex 1.6115804e2 1.3166441e2 2.3666662e-1
vertex 1.6116829e2 1.3067665e2 3.7998736e-2
vertex 1.6115514e2 1.3166441e2 4.6284176e-2
endloop
endfacet
facet normal 1.9123493e-1 1.07792765e-2 -9.8148507e-1
outer loop
vertex 1.6115514e2 1.3166441e2 4.6284176e-2
vertex 1.6116829e2 1.3067665e2 3.7998736e-2
vertex 1.6097327e2 1.3067665e2 5.9604645e-8
endloop
endfacet
facet normal 2.4308363e-1 6.9482706e-4 -9.7000504e-1
outer loop
vertex 1.6115514e2 1.3166441e2 4.6284176e-2
vertex 1.6097327e2 1.3067665e2 5.9604645e-8
vertex 1.6097044e2 1.3166441e2 1.937151e-7
endloop
endfacet
facet normal -1.9554655e-7 1.3521313e-7 -1.0e0
outer loop
vertex 1.6097044e2 1.3166441e2 1.937151e-7
vertex 1.6097327e2 1.3067665e2 5.9604645e-8
vertex 1.6066846e2 1.3067665e2 1.19209105e-7
endloop
endfacet
facet normal 2.4671945e-7 0.0e0 -1.0e0
outer loop
vertex 1.6097044e2 1.3166441e2 1.937151e-7
vertex 1.6066846e2 1.3067665e2 1.19209105e-7
vertex 1.6066846e2 1.3166441e2 1.19209105e-7
endloop
endfacet
facet normal -9.9980605e-1 -6.641279e-3 1.8543163e-2
outer loop
vertex 1.5958105e2 1.3166441e2 2.3666662e-1
vertex 1.595745e2 1.3265218e2 2.3666662e-1
vertex 1.5957153e2 1.3265218e2 7.705897e-2
endloop
endfacet
facet normal -9.9940366e-1 -1.4683702e-2 -3.125291e-2
outer loop
vertex 1.5958105e2 1.3166441e2 2.3666662e-1
vertex 1.5957153e2 1.3265218e2 7.705897e-2
vertex 1.5958583e2 1.3166441e2 8.3939955e-2
endloop
endfacet
facet normal -4.8268858e-1 -1.3087024e-2 -8.756943e-1
outer loop
vertex 1.5958583e2 1.3166441e2 8.3939955e-2
vertex 1.5957153e2 1.3265218e2 7.705897e-2
vertex 1.5971133e2 1.3265218e2 -2.9802322e-7
endloop
endfacet
facet normal -5.4932606e-1 -1.2135735e-3 -8.3560723e-1
outer loop
vertex 1.5958583e2 1.3166441e2 8.3939955e-2
vertex 1.5971133e2 1.3265218e2 -2.9802322e-7
vertex 1.5971352e2 1.3166441e2 -1.937151e-7
endloop
endfacet
facet normal 1.5261337e-6 -1.0222912e-7 -1.0e0
outer loop
vertex 1.5971352e2 1.3166441e2 -1.937151e-7
vertex 1.5971133e2 1.3265218e2 -2.9802322e-7
vertex 1.5998473e2 1.3265218e2 1.19209105e-7
endloop
endfacet
facet normal 1.153809e-6 0.0e0 -1.0e0
outer loop
vertex 1.5971352e2 1.3166441e2 -1.937151e-7
vertex 1.5998473e2 1.3265218e2 1.19209105e-7
vertex 1.5998473e2 1.3166441e2 1.19209105e-7
endloop
endfacet
facet normal 9.998599e-1 6.9505507e-3 -1.5226003e-2
outer loop
vertex 1.6115117e2 1.3265218e2 2.3666662e-1
vertex 1.6115804e2 1.3166441e2 2.3666662e-1
vertex 1.6115514e2 1.3166441e2 4.6284176e-2
endloop
endfacet
facet normal 9.9862874e-1 1.37470625e-2 -5.051404e-2
outer loop
vertex 1.6115117e2 1.3265218e2 2.3666662e-1
vertex 1.6115514e2 1.3166441e2 4.6284176e-2
vertex 1.6114195e2 1.3265218e2 5.446636e-2
endloop
endfacet
facet normal 2.4306826e-1 1.1278794e-2 -9.6994364e-1
outer loop
vertex 1.6114195e2 1.3265218e2 5.446636e-2
vertex 1.6115514e2 1.3166441e2 4.6284176e-2
vertex 1.6097044e2 1.3166441e2 1.937151e-7
endloop
endfacet
facet normal 2.9854643e-1 7.8854023e-4 -9.543949e-1
outer loop
vertex 1.6114195e2 1.3265218e2 5.446636e-2
vertex 1.6097044e2 1.3166441e2 1.937151e-7
vertex 1.6096783e2 1.3265218e2 9.685755e-8
endloop
endfacet
facet normal 2.4671945e-7 -9.74058e-8 -1.0e0
outer loop
vertex 1.6096783e2 1.3265218e2 9.685755e-8
vertex 1.6097044e2 1.3166441e2 1.937151e-7
vertex 1.6066846e2 1.3166441e2 1.19209105e-7
endloop
endfacet
facet normal -7.466013e-8 0.0e0 -1.0e0
outer loop
vertex 1.6096783e2 1.3265218e2 9.685755e-8
vertex 1.6066846e2 1.3166441e2 1.19209105e-7
vertex 1.6066846e2 1.3265218e2 1.19209105e-7
endloop
endfacet
facet normal -9.9807364e-1 -6.9999136e-3 6.1644208e-2
outer loop
vertex 1.595745e2 1.3265218e2 2.3666662e-1
vertex 1.5956757e2 1.3363992e2 2.3666662e-1
vertex 1.5955727e2 1.3363992e2 6.990574e-2
endloop
endfacet
facet normal -9.997258e-1 -1.4305709e-2 1.8541677e-2
outer loop
vertex 1.595745e2 1.3265218e2 2.3666662e-1
vertex 1.5955727e2 1.3363992e2 6.990574e-2
vertex 1.5957153e2 1.3265218e2 7.705897e-2
endloop
endfacet
facet normal -4.18373e-1 -1.2620017e-2 -9.081876e-1
outer loop
vertex 1.5957153e2 1.3265218e2 7.705897e-2
vertex 1.5955727e2 1.3363992e2 6.990574e-2
vertex 1.5970901e2 1.3363992e2 -1.4901161e-8
endloop
endfacet
facet normal -4.827296e-1 -1.133247e-3 -8.7576866e-1
outer loop
vertex 1.5957153e2 1.3265218e2 7.705897e-2
vertex 1.5970901e2 1.3363992e2 -1.4901161e-8
vertex 1.5971133e2 1.3265218e2 -2.9802322e-7
endloop
endfacet
facet normal 4.86416e-7 2.877763e-7 -1.0e0
outer loop
vertex 1.5971133e2 1.3265218e2 -2.9802322e-7
vertex 1.5970901e2 1.3363992e2 -1.4901161e-8
vertex 1.5998473e2 1.3363992e2 1.19209105e-7
endloop
endfacet
facet normal 1.5261337e-6 0.0e0 -1.0e0
outer loop
vertex 1.5971133e2 1.3265218e2 -2.9802322e-7
vertex 1.5998473e2 1.3363992e2 1.19209105e-7
vertex 1.5998473e2 1.3265218e2 1.19209105e-7
endloop
endfacet
facet normal 9.9834454e-1 2.7529158e-2 -5.049967e-2
outer loop
vertex 1.6112393e2 1.3363992e2 2.3666662e-1
vertex 1.6115117e2 1.3265218e2 2.3666662e-1
vertex 1.6114195e2 1.3265218e2 5.446636e-2
endloop
endfacet
facet normal 9.995515e-1 1.3284701e-2 2.6842006e-2
outer loop
vertex 1.6112393e2 1.3363992e2 2.3666662e-1
vertex 1.6114195e2 1.3265218e2 5.446636e-2
vertex 1.6112877e2 1.3363992e2 5.654348e-2
endloop
endfacet
facet normal 2.9854116e-1 5.991618e-3 -9.54378e-1
outer loop
vertex 1.6112877e2 1.3363992e2 5.654348e-2
vertex 1.6114195e2 1.3265218e2 5.446636e-2
vertex 1.6096783e2 1.3265218e2 9.685755e-8
endloop
endfacet
facet normal 3.1380913e-1 3.223648e-3 -9.4948065e-1
outer loop
vertex 1.6112877e2 1.3363992e2 5.654348e-2
vertex 1.6096783e2 1.3265218e2 9.685755e-8
vertex 1.6095769e2 1.3363992e2 -7.450581e-9
endloop
endfacet
facet normal -7.466012e-8 -1.0636903e-7 -1.0e0
outer loop
vertex 1.6095769e2 1.3363992e2 -7.450581e-9
vertex 1.6096783e2 1.3265218e2 9.685755e-8
vertex 1.6066846e2 1.3265218e2 1.19209105e-7
endloop
endfacet
facet normal -4.3791977e-7 0.0e0 -1.0e0
outer loop
vertex 1.6095769e2 1.3363992e2 -7.450581e-9
vertex 1.6066846e2 1.3265218e2 1.19209105e-7
vertex 1.6066846e2 1.3363992e2 1.19209105e-7
endloop
endfacet
facet normal -9.9924713e-1 -2.929791e-2 -2.5430376e-2
outer loop
vertex 1.5956757e2 1.3363992e2 2.3666662e-1
vertex 1.595386e2 1.3462769e2 2.3666662e-1
vertex 1.5954292e2 1.3462769e2 6.698815e-2
endloop
endfacet
facet normal -9.979959e-1 -1.4309795e-2 6.1639402e-2
outer loop
vertex 1.5956757e2 1.3363992e2 2.3666662e-1
vertex 1.5954292e2 1.3462769e2 6.698815e-2
vertex 1.5955727e2 1.3363992e2 6.990574e-2
endloop
endfacet
facet normal -3.9464185e-1 -8.444467e-3 -9.187962e-1
outer loop
vertex 1.5955727e2 1.3363992e2 6.990574e-2
vertex 1.5954292e2 1.3462769e2 6.698815e-2
vertex 1.5969888e2 1.3462769e2 8.195639e-8
endloop
endfacet
facet normal -4.1840246e-1 -4.2916145e-3 -9.082516e-1
outer loop
vertex 1.5955727e2 1.3363992e2 6.990574e-2
vertex 1.5969888e2 1.3462769e2 8.195639e-8
vertex 1.5970901e2 1.3363992e2 -1.4901161e-8
endloop
endfacet
facet normal 1.3032584e-7 9.9394335e-8 -1.0e0
outer loop
vertex 1.5970901e2 1.3363992e2 -1.4901161e-8
vertex 1.5969888e2 1.3462769e2 8.195639e-8
vertex 1.5998473e2 1.3462769e2 1.19209105e-7
endloop
endfacet
facet normal 4.86416e-7 0.0e0 -1.0e0
outer loop
vertex 1.5970901e2 1.3363992e2 -1.4901161e-8
vertex 1.5998473e2 1.3462769e2 1.19209105e-7
vertex 1.5998473e2 1.3363992e2 1.19209105e-7
endloop
endfacet
facet normal 9.996165e-1 6.809882e-3 2.6843755e-2
outer loop
vertex 1.611172e2 1.3462769e2 2.3666662e-1
vertex 1.6112393e2 1.3363992e2 2.3666662e-1
vertex 1.6112877e2 1.3363992e2 5.654348e-2
endloop
endfacet
facet normal 9.998661e-1 1.3416024e-2 -9.367098e-3
outer loop
vertex 1.611172e2 1.3462769e2 2.3666662e-1
vertex 1.6112877e2 1.3363992e2 5.654348e-2
vertex 1.6111559e2 1.3462769e2 6.401815e-2
endloop
endfacet
facet normal 3.1379038e-1 1.1372694e-2 -9.494241e-1
outer loop
vertex 1.6111559e2 1.3462769e2 6.401815e-2
vertex 1.6112877e2 1.3363992e2 5.654348e-2
vertex 1.6095769e2 1.3363992e2 -7.450581e-9
endloop
endfacet
facet normal 3.7077323e-1 9.22086e-4 -9.2872304e-1
outer loop
vertex 1.6111559e2 1.3462769e2 6.401815e-2
vertex 1.6095769e2 1.3363992e2 -7.450581e-9
vertex 1.6095523e2 1.3462769e2 -7.4505806e-8
endloop
endfacet
facet normal -4.3791977e-7 -6.897513e-8 -1.0e0
outer loop
vertex 1.6095523e2 1.3462769e2 -7.4505806e-8
vertex 1.6095769e2 1.3363992e2 -7.450581e-9
vertex 1.6066846e2 1.3363992e2 1.19209105e-7
endloop
endfacet
facet normal -6.754975e-7 0.0e0 -1.0e0
outer loop
vertex 1.6095523e2 1.3462769e2 -7.4505806e-8
vertex 1.6066846e2 1.3363992e2 1.19209105e-7
vertex 1.6066846e2 1.3462769e2 1.19209105e-7
endloop
endfacet
facet normal -9.9985033e-1 -7.243949e-3 1.571195e-2
outer loop
vertex 1.595386e2 1.3462769e2 2.3666662e-1
vertex 1.5953145e2 1.3561545e2 2.3666662e-1
vertex 1.5952866e2 1.3561545e2 5.8971267e-2
endloop
endfacet
facet normal -9.9956906e-1 -1.4643963e-2 -2.543856e-2
outer loop
vertex 1.595386e2 1.3462769e2 2.3666662e-1
vertex 1.5952866e2 1.3561545e2 5.8971267e-2
vertex 1.5954292e2 1.3462769e2 6.698815e-2
endloop
endfacet
facet normal -3.3179957e-1 -1.2448174e-2 -9.4326776e-1
outer loop
vertex 1.5954292e2 1.3462769e2 6.698815e-2
vertex 1.5952866e2 1.3561545e2 5.8971267e-2
vertex 1.596963e2 1.3561545e2 5.9604645e-8
endloop
endfacet
facet normal -3.9465573e-1 -1.0303436e-3 -9.188285e-1
outer loop
vertex 1.5954292e2 1.3462769e2 6.698815e-2
vertex 1.596963e2 1.3561545e2 5.9604645e-8
vertex 1.5969888e2 1.3462769e2 8.195639e-8
endloop
endfacet
facet normal 2.0665739e-7 -2.2089143e-8 -9.9999994e-1
outer loop
vertex 1.5969888e2 1.3462769e2 8.195639e-8
vertex 1.596963e2 1.3561545e2 5.9604645e-8
vertex 1.5998473e2 1.3561545e2 1.19209105e-7
endloop
endfacet
facet normal 1.3032586e-7 0.0e0 -1.0e0
outer loop
vertex 1.5969888e2 1.3462769e2 8.195639e-8
vertex 1.5998473e2 1.3561545e2 1.19209105e-7
vertex 1.5998473e2 1.3462769e2 1.19209105e-7
endloop
endfacet
facet normal 9.9993545e-1 6.44133e-3 -9.367747e-3
outer loop
vertex 1.6111084e2 1.3561545e2 2.3666662e-1
vertex 1.611172e2 1.3462769e2 2.3666662e-1
vertex 1.6111559e2 1.3462769e2 6.401815e-2
endloop
endfacet
facet normal 9.986171e-1 1.3670455e-2 -5.0763503e-2
outer loop
vertex 1.6111084e2 1.3561545e2 2.3666662e-1
vertex 1.6111559e2 1.3462769e2 6.401815e-2
vertex 1.6110243e2 1.3561545e2 7.127288e-2
endloop
endfacet
facet normal 3.7074775e-1 1.1757527e-2 -9.286592e-1
outer loop
vertex 1.6110243e2 1.3561545e2 7.127288e-2
vertex 1.6111559e2 1.3462769e2 6.401815e-2
vertex 1.6095523e2 1.3462769e2 -7.4505806e-8
endloop
endfacet
facet normal 4.3039837e-1 9.905342e-4 -9.026385e-1
outer loop
vertex 1.6110243e2 1.3561545e2 7.127288e-2
vertex 1.6095523e2 1.3462769e2 -7.4505806e-8
vertex 1.6095296e2 1.3561545e2 -2.1606684e-7
endloop
endfacet
facet normal -6.7549763e-7 -1.4486967e-7 -1.0e0
outer loop
vertex 1.6095296e2 1.3561545e2 -2.1606684e-7
vertex 1.6095523e2 1.3462769e2 -7.4505806e-8
vertex 1.6066846e2 1.3462769e2 1.19209105e-7
endloop
endfacet
facet normal -1.1784739e-6 0.0e0 -1.0e0
outer loop
vertex 1.6095296e2 1.3561545e2 -2.1606684e-7
vertex 1.6066846e2 1.3462769e2 1.19209105e-7
vertex 1.6066846e2 1.3561545e2 1.19209105e-7
endloop
endfacet
facet normal -9.9867475e-1 -7.667517e-3 5.0890744e-2
outer loop
vertex 1.5953145e2 1.3561545e2 2.3666662e-1
vertex 1.5952386e2 1.366032e2 2.3666662e-1
vertex 1.5951439e2 1.366032e2 5.0716273e-2
endloop
endfacet
facet normal -9.997741e-1 -1.4309383e-2 1.5710752e-2
outer loop
vertex 1.5953145e2 1.3561545e2 2.3666662e-1
vertex 1.5951439e2 1.366032e2 5.0716273e-2
vertex 1.5952866e2 1.3561545e2 5.8971267e-2
endloop
endfacet
facet normal -2.7236497e-1 -1.1974838e-2 -9.621195e-1
outer loop
vertex 1.5952866e2 1.3561545e2 5.8971267e-2
vertex 1.5951439e2 1.366032e2 5.0716273e-2
vertex 1.5969354e2 1.366032e2 -7.450581e-9
endloop
endfacet
facet normal -3.3182517e-1 -9.278838e-4 -9.433405e-1
outer loop
vertex 1.5952866e2 1.3561545e2 5.8971267e-2
vertex 1.5969354e2 1.366032e2 -7.450581e-9
vertex 1.596963e2 1.3561545e2 5.9604645e-8
endloop
endfacet
facet normal 4.3498238e-7 -6.667078e-8 -1.0e0
outer loop
vertex 1.596963e2 1.3561545e2 5.9604645e-8
vertex 1.5969354e2 1.366032e2 -7.450581e-9
vertex 1.5998473e2 1.366032e2 1.19209105e-7
endloop
endfacet
facet normal 2.0665739e-7 0.0e0 -1.0e0
outer loop
vertex 1.596963e2 1.3561545e2 5.9604645e-8
vertex 1.5998473e2 1.366032e2 1.19209105e-7
vertex 1.5998473e2 1.3561545e2 1.19209105e-7
endloop
endfacet
facet normal 9.9829596e-1 2.8807824e-2 -5.074719e-2
outer loop
vertex 1.6108234e2 1.366032e2 2.3666662e-1
vertex 1.6111084e2 1.3561545e2 2.3666662e-1
vertex 1.6110243e2 1.3561545e2 7.127288e-2
endloop
endfacet
facet normal 9.990186e-1 1.32479295e-2 4.2265784e-2
outer loop
vertex 1.6108234e2 1.366032e2 2.3666662e-1
vertex 1.6110243e2 1.3561545e2 7.127288e-2
vertex 1.6108925e2 1.366032e2 7.328512e-2
endloop
endfacet
facet normal 4.3038625e-1 7.583226e-3 -9.0261304e-1
outer loop
vertex 1.6108925e2 1.366032e2 7.328512e-2
vertex 1.6110243e2 1.3561545e2 7.127288e-2
vertex 1.6095296e2 1.3561545e2 -2.1606684e-7
endloop
endfacet
facet normal 4.481654e-1 4.486478e-3 -8.939394e-1
outer loop
vertex 1.6108925e2 1.366032e2 7.328512e-2
vertex 1.6095296e2 1.3561545e2 -2.1606684e-7
vertex 1.6094307e2 1.366032e2 -7.450581e-9
endloop
endfacet
facet normal -1.1784738e-6 1.9940715e-7 -1.0e0
outer loop
vertex 1.6094307e2 1.366032e2 -7.450581e-9
vertex 1.6095296e2 1.3561545e2 -2.1606684e-7
vertex 1.6066846e2 1.3561545e2 1.19209105e-7
endloop
endfacet
facet normal -4.612307e-7 0.0e0 -1.0e0
outer loop
vertex 1.6094307e2 1.366032e2 -7.450581e-9
vertex 1.6066846e2 1.3561545e2 1.19209105e-7
vertex 1.6066846e2 1.366032e2 1.19209105e-7
endloop
endfacet
facet normal -9.9939924e-1 -2.7959218e-2 -2.0485066e-2
outer loop
vertex 1.5952386e2 1.366032e2 2.3666662e-1
vertex 1.5949623e2 1.3759096e2 2.3666662e-1
vertex 1.595001e2 1.3759096e2 4.758238e-2
endloop
endfacet
facet normal -9.9860245e-1 -1.4277514e-2 5.0887056e-2
outer loop
vertex 1.5952386e2 1.366032e2 2.3666662e-1
vertex 1.595001e2 1.3759096e2 4.758238e-2
vertex 1.5951439e2 1.366032e2 5.0716273e-2
endloop
endfacet
facet normal -2.5158206e-1 -6.708266e-3 -9.678127e-1
outer loop
vertex 1.5951439e2 1.366032e2 5.0716273e-2
vertex 1.595001e2 1.3759096e2 4.758238e-2
vertex 1.5968315e2 1.3759096e2 1.4156103e-7
endloop
endfacet
facet normal -2.7238336e-1 -2.8653238e-3 -9.6218455e-1
outer loop
vertex 1.5951439e2 1.366032e2 5.0716273e-2
vertex 1.5968315e2 1.3759096e2 1.4156103e-7
vertex 1.5969354e2 1.366032e2 -7.450581e-9
endloop
endfacet
facet normal -7.411739e-8 1.5007802e-7 -1.0e0
outer loop
vertex 1.5969354e2 1.366032e2 -7.450581e-9
vertex 1.5968315e2 1.3759096e2 1.4156103e-7
vertex 1.5998473e2 1.3759096e2 1.19209105e-7
endloop
endfacet
facet normal 4.349824e-7 0.0e0 -1.0e0
outer loop
vertex 1.5969354e2 1.366032e2 -7.450581e-9
vertex 1.5998473e2 1.3759096e2 1.19209105e-7
vertex 1.5998473e2 1.366032e2 1.19209105e-7
endloop
endfacet
facet normal 9.9908626e-1 6.3278237e-3 4.2268645e-2
outer loop
vertex 1.6107608e2 1.3759096e2 2.3666662e-1
vertex 1.6108234e2 1.366032e2 2.3666662e-1
vertex 1.6108925e2 1.366032e2 7.328512e-2
endloop
endfacet
facet normal 9.9991137e-1 1.3314214e-2 9.724183e-5
outer loop
vertex 1.6107608e2 1.3759096e2 2.3666662e-1
vertex 1.6108925e2 1.366032e2 7.328512e-2
vertex 1.610761e2 1.3759096e2 7.9764634e-2
endloop
endfacet
facet normal 4.4813856e-1 1.1831132e-2 -8.9388585e-1
outer loop
vertex 1.610761e2 1.3759096e2 7.9764634e-2
vertex 1.6108925e2 1.366032e2 7.328512e-2
vertex 1.6094307e2 1.366032e2 -7.450581e-9
endloop
endfacet
facet normal 5.0836444e-1 1.0760414e-3 -8.611413e-1
outer loop
vertex 1.610761e2 1.3759096e2 7.9764634e-2
vertex 1.6094307e2 1.366032e2 -7.450581e-9
vertex 1.6094098e2 1.3759096e2 1.7881393e-7
endloop
endfacet
facet normal -4.6123068e-7 1.8759604e-7 -1.0e0
outer loop
vertex 1.6094098e2 1.3759096e2 1.7881393e-7
vertex 1.6094307e2 1.366032e2 -7.450581e-9
vertex 1.6066846e2 1.366032e2 1.19209105e-7
endloop
endfacet
facet normal 2.1871567e-7 0.0e0 -1.0e0
outer loop
vertex 1.6094098e2 1.3759096e2 1.7881393e-7
vertex 1.6066846e2 1.366032e2 1.19209105e-7
vertex 1.6066846e2 1.3759096e2 1.19209105e-7
endloop
endfacet
facet normal -9.998827e-1 -7.954701e-3 1.3092537e-2
outer loop
vertex 1.5949623e2 1.3759096e2 2.3666662e-1
vertex 1.5948837e2 1.3857872e2 2.3666662e-1
vertex 1.5948578e2 1.3857872e2 3.8562134e-2
endloop
endfacet
facet normal -9.996822e-1 -1.4688028e-2 -2.0490872e-2
outer loop
vertex 1.5949623e2 1.3759096e2 2.3666662e-1
vertex 1.5948578e2 1.3857872e2 3.8562134e-2
vertex 1.595001e2 1.3759096e2 4.758238e-2
endloop
endfacet
facet normal -1.9462074e-1 -1.177981e-2 -9.808078e-1
outer loop
vertex 1.595001e2 1.3759096e2 4.758238e-2
vertex 1.5948578e2 1.3857872e2 3.8562134e-2
vertex 1.5968011e2 1.3857872e2 2.3841858e-7
endloop
endfacet
facet normal -2.5158766e-1 -7.733112e-4 -9.6783423e-1
outer loop
vertex 1.595001e2 1.3759096e2 4.758238e-2
vertex 1.5968011e2 1.3857872e2 2.3841858e-7
vertex 1.5968315e2 1.3759096e2 1.4156103e-7
endloop
endfacet
facet normal -3.9134963e-7 9.685448e-8 -1.0e0
outer loop
vertex 1.5968315e2 1.3759096e2 1.4156103e-7
vertex 1.5968011e2 1.3857872e2 2.3841858e-7
vertex 1.5998473e2 1.3857872e2 1.19209105e-7
endloop
endfacet
facet normal -7.411738e-8 0.0e0 -1.0e0
outer loop
vertex 1.5968315e2 1.3759096e2 1.4156103e-7
vertex 1.5998473e2 1.3857872e2 1.19209105e-7
vertex 1.5998473e2 1.3759096e2 1.19209105e-7
endloop
endfacet
facet normal 9.99982e-1 5.993651e-3 9.7248696e-5
outer loop
vertex 1.6107016e2 1.3857872e2 2.3666662e-1
vertex 1.6107608e2 1.3759096e2 2.3666662e-1
vertex 1.610761e2 1.3759096e2 7.9764634e-2
endloop
endfacet
facet normal 9.9877244e-1 1.3569013e-2 -4.763853e-2
outer loop
vertex 1.6107016e2 1.3857872e2 2.3666662e-1
vertex 1.610761e2 1.3759096e2 7.9764634e-2
vertex 1.6106297e2 1.3857872e2 8.598885e-2
endloop
endfacet
facet normal 5.0832707e-1 1.217913e-2 -8.61078e-1
outer loop
vertex 1.6106297e2 1.3857872e2 8.598885e-2
vertex 1.610761e2 1.3759096e2 7.9764634e-2
vertex 1.6094098e2 1.3759096e2 1.7881393e-7
endloop
endfacet
facet normal 5.7001233e-1 1.1270201e-3 -8.2163525e-1
outer loop
vertex 1.6106297e2 1.3857872e2 8.598885e-2
vertex 1.6094098e2 1.3759096e2 1.7881393e-7
vertex 1.6093903e2 1.3857872e2 8.940697e-8
endloop
endfacet
facet normal 2.1871568e-7 -9.0082175e-8 -1.0e0
outer loop
vertex 1.6093903e2 1.3857872e2 8.940697e-8
vertex 1.6094098e2 1.3759096e2 1.7881393e-7
vertex 1.6066846e2 1.3759096e2 1.19209105e-7
endloop
endfacet
facet normal -1.10146225e-7 0.0e0 -1.0e0
outer loop
vertex 1.6093903e2 1.3857872e2 8.940697e-8
vertex 1.6066846e2 1.3759096e2 1.19209105e-7
vertex 1.6066846e2 1.3857872e2 1.19209105e-7
endloop
endfacet
facet normal -3.913496e-7 1.0212587e-7 -9.9999994e-1
outer loop
vertex 1.5998473e2 1.3938123e2 2.0116568e-7
vertex 1.5998473e2 1.3857872e2 1.19209105e-7
vertex 1.5968011e2 1.3857872e2 2.3841858e-7
endloop
endfacet
facet normal -1.9410527e-1 7.367751e-2 -9.782099e-1
outer loop
vertex 1.5998473e2 1.3938123e2 2.0116568e-7
vertex 1.5968011e2 1.3857872e2 2.3841858e-7
vertex 1.5948578e2 1.3857872e2 3.8562134e-2
endloop
endfacet
facet normal -9.967976e-1 -7.8892365e-2 1.30521385e-2
outer loop
vertex 1.5948578e2 1.3857872e2 3.8562134e-2
vertex 1.5948837e2 1.3857872e2 2.3666662e-1
vertex 1.5943793e2 1.392161e2 2.3666662e-1
endloop
endfacet
facet normal -7.919861e-1 1.2620588e-1 -5.973526e-1
outer loop
vertex 1.5948578e2 1.3857872e2 3.8562134e-2
vertex 1.5943793e2 1.392161e2 2.3666662e-1
vertex 1.596319e2 1.3931314e2 -2.3841858e-7
endloop
endfacet
facet normal -7.779485e-1 4.239335e-1 -4.637635e-1
outer loop
vertex 1.5943793e2 1.392161e2 2.3666662e-1
vertex 1.5961491e2 1.3954088e2 2.3666662e-1
vertex 1.596319e2 1.3931314e2 -2.3841858e-7
endloop
endfacet
facet normal -1.2834691e-2 7.2005e-1 -6.9380355e-1
outer loop
vertex 1.5961491e2 1.3954088e2 2.3666662e-1
vertex 1.5998473e2 1.3954747e2 2.3666662e-1
vertex 1.596319e2 1.3931314e2 -2.3841858e-7
endloop
endfacet
facet normal -1.5597099e-1 8.0827737e-1 -5.677682e-1
outer loop
vertex 1.5998473e2 1.3954747e2 2.3666662e-1
vertex 1.5998473e2 1.3938123e2 2.0116568e-7
vertex 1.596319e2 1.3931314e2 -2.3841858e-7
endloop
endfacet
facet normal 1.0521778e-2 -5.451957e-2 -9.9845725e-1
outer loop
vertex 1.5998473e2 1.3938123e2 2.0116568e-7
vertex 1.5948578e2 1.3857872e2 3.8562134e-2
vertex 1.596319e2 1.3931314e2 -2.3841858e-7
endloop
endfacet
facet normal -1.4471059e-2 8.115566e-1 -5.8409464e-1
outer loop
vertex 1.5998473e2 1.3954747e2 2.3666662e-1
vertex 1.6066846e2 1.3955966e2 2.3666662e-1
vertex 1.6066846e2 1.3938933e2 2.30968e-7
endloop
endfacet
facet normal -9.696514e-3 8.1825346e-1 -5.747759e-1
outer loop
vertex 1.5998473e2 1.3954747e2 2.3666662e-1
vertex 1.6066846e2 1.3938933e2 2.30968e-7
vertex 1.5998473e2 1.3938123e2 2.0116568e-7
endloop
endfacet
facet normal 4.1953975e-8 1.3787047e-7 -1.0e0
outer loop
vertex 1.5998473e2 1.3938123e2 2.0116568e-7
vertex 1.6066846e2 1.3938933e2 2.30968e-7
vertex 1.6066846e2 1.3857872e2 1.19209105e-7
endloop
endfacet
facet normal 0.0e0 1.0212587e-7 -1.0e0
outer loop
vertex 1.5998473e2 1.3938123e2 2.0116568e-7
vertex 1.6066846e2 1.3857872e2 1.19209105e-7
vertex 1.5998473e2 1.3857872e2 1.19209105e-7
endloop
endfacet
facet normal 9.986465e-1 2.089004e-2 -4.7632527e-2
outer loop
vertex 1.610503e2 1.3952846e2 2.3666662e-1
vertex 1.6107016e2 1.3857872e2 2.3666662e-1
vertex 1.6106297e2 1.3857872e2 8.598885e-2
endloop
endfacet
facet normal -1.1014623e-7 1.3787047e-7 -1.0e0
outer loop
vertex 1.6093903e2 1.3857872e2 8.940697e-8
vertex 1.6066846e2 1.3857872e2 1.19209105e-7
vertex 1.6066846e2 1.3938933e2 2.30968e-7
endloop
endfacet
facet normal 7.5692756e-6 2.7011472e-6 -1.0e0
outer loop
vertex 1.6093903e2 1.3857872e2 8.940697e-8
vertex 1.6066846e2 1.3938933e2 2.30968e-7
vertex 1.60937e2 1.3916365e2 1.6540289e-6
endloop
endfacet
facet normal 5.6349427e-1 6.705133e-1 -4.8258272e-1
outer loop
vertex 1.6066846e2 1.3938933e2 2.30968e-7
vertex 1.6066846e2 1.3955966e2 2.3666662e-1
vertex 1.60937e2 1.3916365e2 1.6540289e-6
endloop
endfacet
facet normal 4.365155e-2 5.341498e-1 -8.44262e-1
outer loop
vertex 1.6066846e2 1.3955966e2 2.3666662e-1
vertex 1.610503e2 1.3952846e2 2.3666662e-1
vertex 1.60937e2 1.3916365e2 1.6540289e-6
endloop
endfacet
facet normal 8.302231e-1 9.8140575e-2 -5.4872406e-1
outer loop
vertex 1.610503e2 1.3952846e2 2.3666662e-1
vertex 1.6106297e2 1.3857872e2 8.598885e-2
vertex 1.60937e2 1.3916365e2 1.6540289e-6
endloop
endfacet
facet normal 5.700116e-1 1.9798565e-3 -8.2163423e-1
outer loop
vertex 1.6106297e2 1.3857872e2 8.598885e-2
vertex 1.6093903e2 1.3857872e2 8.940697e-8
vertex 1.60937e2 1.3916365e2 1.6540289e-6
endloop
endfacet
facet normal -9.9992853e-1 -2.7161809e-3 -1.1636684e-2
outer loop
vertex 1.596001e2 1.3067665e2 1.1833332e0
vertex 1.5961111e2 1.3067665e2 2.3666662e-1
vertex 1.5961366e2 1.2973856e2 2.3666662e-1
endloop
endfacet
facet normal -9.998952e-1 -1.4475913e-2 1.7050332e-5
outer loop
vertex 1.596001e2 1.3067665e2 1.1833332e0
vertex 1.5961366e2 1.2973856e2 2.3666662e-1
vertex 1.5961368e2 1.2973862e2 1.1833332e0
endloop
endfacet
facet normal -1.2388406e-1 -9.9229664e-1 6.5973916e-5
outer loop
vertex 1.5961368e2 1.2973862e2 1.1833332e0
vertex 1.5961366e2 1.2973856e2 2.3666662e-1
vertex 1.5998473e2 1.2969223e2 2.3666662e-1
endloop
endfacet
facet normal -1.24049805e-1 -9.92276e-1 0.0e0
outer loop
vertex 1.5961368e2 1.2973862e2 1.1833332e0
vertex 1.5998473e2 1.2969223e2 2.3666662e-1
vertex 1.5998473e2 1.2969223e2 1.1833332e0
endloop
endfacet
facet normal 9.9990624e-1 1.3339616e-2 -3.1105673e-3
outer loop
vertex 1.6116533e2 1.3067665e2 2.3666662e-1
vertex 1.6116827e2 1.3067665e2 1.1833332e0
vertex 1.6117656e2 1.3005559e2 1.1833332e0
endloop
endfacet
facet normal 9.961438e-1 7.831028e-2 3.955825e-2
outer loop
vertex 1.6116533e2 1.3067665e2 2.3666662e-1
vertex 1.6117656e2 1.3005559e2 1.1833332e0
vertex 1.6121571e2 1.3003574e2 2.3666662e-1
endloop
endfacet
facet normal 9.3691516e-1 -3.4651473e-1 4.601718e-2
outer loop
vertex 1.6121571e2 1.3003574e2 2.3666662e-1
vertex 1.6117656e2 1.3005559e2 1.1833332e0
vertex 1.610457e2 1.2970177e2 1.1833332e0
endloop
endfacet
facet normal 8.8937306e-1 -4.5717946e-1 -1.5617477e-3
outer loop
vertex 1.6121571e2 1.3003574e2 2.3666662e-1
vertex 1.610457e2 1.2970177e2 1.1833332e0
vertex 1.61044e2 1.297017e2 2.3666662e-1
endloop
endfacet
facet normal 9.019575e-3 -9.999594e-1 4.83338e-5
outer loop
vertex 1.61044e2 1.297017e2 2.3666662e-1
vertex 1.610457e2 1.2970177e2 1.1833332e0
vertex 1.6066846e2 1.2969836e2 1.1833332e0
endloop
endfacet
facet normal 8.897747e-3 -9.999605e-1 0.0e0
outer loop
vertex 1.61044e2 1.297017e2 2.3666662e-1
vertex 1.6066846e2 1.2969836e2 1.1833332e0
vertex 1.6066846e2 1.2969836e2 2.3666662e-1
endloop
endfacet
facet normal -9.9982756e-1 -1.4472123e-2 -1.1635508e-2
outer loop
vertex 1.5961111e2 1.3067665e2 2.3666662e-1
vertex 1.596001e2 1.3067665e2 1.1833332e0
vertex 1.595858e2 1.3166441e2 1.1833332e0
endloop
endfacet
facet normal -9.995247e-1 -3.0417766e-2 5.0104544e-3
outer loop
vertex 1.5961111e2 1.3067665e2 2.3666662e-1
vertex 1.595858e2 1.3166441e2 1.1833332e0
vertex 1.5958105e2 1.3166441e2 2.3666662e-1
endloop
endfacet
facet normal 9.9996793e-1 7.3838276e-3 -3.1107594e-3
outer loop
vertex 1.6116827e2 1.3067665e2 1.1833332e0
vertex 1.6116533e2 1.3067665e2 2.3666662e-1
vertex 1.6115804e2 1.3166441e2 2.3666662e-1
endloop
endfacet
facet normal 9.999064e-1 1.3330231e-2 3.094451e-3
outer loop
vertex 1.6116827e2 1.3067665e2 1.1833332e0
vertex 1.6115804e2 1.3166441e2 2.3666662e-1
vertex 1.611551e2 1.3166441e2 1.1833332e0
endloop
endfacet
facet normal -9.998829e-1 -1.4457477e-2 5.012248e-3
outer loop
vertex 1.5958105e2 1.3166441e2 2.3666662e-1
vertex 1.595858e2 1.3166441e2 1.1833332e0
vertex 1.5957152e2 1.3265218e2 1.1833332e0
endloop
endfacet
facet normal -9.9997294e-1 -6.6423886e-3 -3.1430116e-3
outer loop
vertex 1.5958105e2 1.3166441e2 2.3666662e-1
vertex 1.5957152e2 1.3265218e2 1.1833332e0
vertex 1.595745e2 1.3265218e2 2.3666662e-1
endloop
endfacet
facet normal 9.9997103e-1 6.9513232e-3 3.094651e-3
outer loop
vertex 1.611551e2 1.3166441e2 1.1833332e0
vertex 1.6115804e2 1.3166441e2 2.3666662e-1
vertex 1.6115117e2 1.3265218e2 2.3666662e-1
endloop
endfacet
facet normal 9.9986404e-1 1.3314221e-2 9.734215e-3
outer loop
vertex 1.611551e2 1.3166441e2 1.1833332e0
vertex 1.6115117e2 1.3265218e2 2.3666662e-1
vertex 1.6114195e2 1.3265218e2 1.1833332e0
endloop
endfacet
facet normal -9.998905e-1 -1.4457811e-2 -3.142752e-3
outer loop
vertex 1.595745e2 1.3265218e2 2.3666662e-1
vertex 1.5957152e2 1.3265218e2 1.1833332e0
vertex 1.5955724e2 1.3363992e2 1.1833332e0
endloop
endfacet
facet normal -9.9991584e-1 -7.012834e-3 -1.0911265e-2
outer loop
vertex 1.595745e2 1.3265218e2 2.3666662e-1
vertex 1.5955724e2 1.3363992e2 1.1833332e0
vertex 1.5956757e2 1.3363992e2 2.3666662e-1
endloop
endfacet
facet normal 9.9957275e-1 2.7563024e-2 9.731378e-3
outer loop
vertex 1.6114195e2 1.3265218e2 1.1833332e0
vertex 1.6115117e2 1.3265218e2 2.3666662e-1
vertex 1.6112393e2 1.3363992e2 2.3666662e-1
endloop
endfacet
facet normal 9.99898e-1 1.3330325e-2 -5.125141e-3
outer loop
vertex 1.6114195e2 1.3265218e2 1.1833332e0
vertex 1.6112393e2 1.3363992e2 2.3666662e-1
vertex 1.6112878e2 1.3363992e2 1.1833332e0
endloop
endfacet
facet normal -9.9983597e-1 -1.4456799e-2 -1.0910395e-2
outer loop
vertex 1.5956757e2 1.3363992e2 2.3666662e-1
vertex 1.5955724e2 1.3363992e2 1.1833332e0
vertex 1.5954295e2 1.3462769e2 1.1833332e0
endloop
endfacet
facet normal -9.995598e-1 -2.930708e-2 4.591734e-3
outer loop
vertex 1.5956757e2 1.3363992e2 2.3666662e-1
vertex 1.5954295e2 1.3462769e2 1.1833332e0
vertex 1.595386e2 1.3462769e2 2.3666662e-1
endloop
endfacet
facet normal 9.999637e-1 6.812247e-3 -5.1254784e-3
outer loop
vertex 1.6112878e2 1.3363992e2 1.1833332e0
vertex 1.6112393e2 1.3363992e2 2.3666662e-1
vertex 1.611172e2 1.3462769e2 2.3666662e-1
endloop
endfacet
facet normal 9.9990976e-1 1.3330276e-2 1.6761665e-3
outer loop
vertex 1.6112878e2 1.3363992e2 1.1833332e0
vertex 1.611172e2 1.3462769e2 2.3666662e-1
vertex 1.6111562e2 1.3462769e2 1.1833332e0
endloop
endfacet
facet normal -9.9988467e-1 -1.4472948e-2 4.593226e-3
outer loop
vertex 1.595386e2 1.3462769e2 2.3666662e-1
vertex 1.5954295e2 1.3462769e2 1.1833332e0
vertex 1.5952866e2 1.3561545e2 1.1833332e0
endloop
endfacet
facet normal -9.9996936e-1 -7.2448114e-3 -2.9495845e-3
outer loop
vertex 1.595386e2 1.3462769e2 2.3666662e-1
vertex 1.5952866e2 1.3561545e2 1.1833332e0
vertex 1.5953145e2 1.3561545e2 2.3666662e-1
endloop
endfacet
facet normal 9.999778e-1 6.4416034e-3 1.6762807e-3
outer loop
vertex 1.6111562e2 1.3462769e2 1.1833332e0
vertex 1.611172e2 1.3462769e2 2.3666662e-1
vertex 1.6111084e2 1.3561545e2 2.3666662e-1
endloop
endfacet
facet normal 9.9987185e-1 1.332977e-2 8.864005e-3
outer loop
vertex 1.6111562e2 1.3462769e2 1.1833332e0
vertex 1.6111084e2 1.3561545e2 2.3666662e-1
vertex 1.6110245e2 1.3561545e2 1.1833332e0
endloop
endfacet
facet normal -9.9989116e-1 -1.445782e-2 -2.9493538e-3
outer loop
vertex 1.5953145e2 1.3561545e2 2.3666662e-1
vertex 1.5952866e2 1.3561545e2 1.1833332e0
vertex 1.5951437e2 1.366032e2 1.1833332e0
endloop
endfacet
facet normal -9.999203e-1 -7.677079e-3 -1.0024871e-2
outer loop
vertex 1.5953145e2 1.3561545e2 2.3666662e-1
vertex 1.5951437e2 1.366032e2 1.1833332e0
vertex 1.5952386e2 1.366032e2 2.3666662e-1
endloop
endfacet
facet normal 9.9954474e-1 2.8843861e-2 8.861107e-3
outer loop
vertex 1.6110245e2 1.3561545e2 1.1833332e0
vertex 1.6111084e2 1.3561545e2 2.3666662e-1
vertex 1.6108234e2 1.366032e2 2.3666662e-1
endloop
endfacet
facet normal 9.998843e-1 1.3330142e-2 -7.333042e-3
outer loop
vertex 1.6110245e2 1.3561545e2 1.1833332e0
vertex 1.6108234e2 1.366032e2 2.3666662e-1
vertex 1.6108928e2 1.366032e2 1.1833332e0
endloop
endfacet
facet normal -9.998452e-1 -1.4456933e-2 -1.0024118e-2
outer loop
vertex 1.5952386e2 1.366032e2 2.3666662e-1
vertex 1.5951437e2 1.366032e2 1.1833332e0
vertex 1.5950009e2 1.3759096e2 1.1833332e0
endloop
endfacet
facet normal -9.9960065e-1 -2.7964853e-2 4.0763374e-3
outer loop
vertex 1.5952386e2 1.366032e2 2.3666662e-1
vertex 1.5950009e2 1.3759096e2 1.1833332e0
vertex 1.5949623e2 1.3759096e2 2.3666662e-1
endloop
endfacet
facet normal 9.999531e-1 6.333315e-3 -7.333547e-3
outer loop
vertex 1.6108928e2 1.366032e2 1.1833332e0
vertex 1.6108234e2 1.366032e2 2.3666662e-1
vertex 1.6107608e2 1.3759096e2 2.3666662e-1
endloop
endfacet
facet normal 9.999112e-1 1.3330296e-2 -3.2235017e-5
outer loop
vertex 1.6108928e2 1.366032e2 1.1833332e0
vertex 1.6107608e2 1.3759096e2 2.3666662e-1
vertex 1.6107611e2 1.3759096e2 1.1833332e0
endloop
endfacet
facet normal -9.998872e-1 -1.4457541e-2 4.077506e-3
outer loop
vertex 1.5949623e2 1.3759096e2 2.3666662e-1
vertex 1.5950009e2 1.3759096e2 1.1833332e0
vertex 1.5948581e2 1.3857872e2 1.1833332e0
endloop
endfacet
facet normal -9.999647e-1 -7.955353e-3 -2.707802e-3
outer loop
vertex 1.5949623e2 1.3759096e2 2.3666662e-1
vertex 1.5948581e2 1.3857872e2 1.1833332e0
vertex 1.5948837e2 1.3857872e2 2.3666662e-1
endloop
endfacet
facet normal 9.9998206e-1 5.9936517e-3 -3.2236305e-5
outer loop
vertex 1.6107611e2 1.3759096e2 1.1833332e0
vertex 1.6107608e2 1.3759096e2 2.3666662e-1
vertex 1.6107016e2 1.3857872e2 2.3666662e-1
endloop
endfacet
facet normal 9.998821e-1 1.3329907e-2 7.6231235e-3
outer loop
vertex 1.6107611e2 1.3759096e2 1.1833332e0
vertex 1.6107016e2 1.3857872e2 2.3666662e-1
vertex 1.6106294e2 1.3857872e2 1.1833332e0
endloop
endfacet
facet normal -9.998915e-1 -1.4480079e-2 -2.7076043e-3
outer loop
vertex 1.5948837e2 1.3857872e2 2.3666662e-1
vertex 1.5948581e2 1.3857872e2 1.1833332e0
vertex 1.5947687e2 1.3919617e2 1.1833332e0
endloop
endfacet
facet normal -9.961118e-1 -7.883809e-2 3.931473e-2
outer loop
vertex 1.5948837e2 1.3857872e2 2.3666662e-1
vertex 1.5947687e2 1.3919617e2 1.1833332e0
vertex 1.5943793e2 1.392161e2 2.3666662e-1
endloop
endfacet
facet normal -9.283014e-1 3.6897823e-1 4.595224e-2
outer loop
vertex 1.5943793e2 1.392161e2 2.3666662e-1
vertex 1.5947687e2 1.3919617e2 1.1833332e0
vertex 1.5961388e2 1.3954086e2 1.1833332e0
endloop
endfacet
facet normal -8.780859e-1 4.7850215e-1 -9.547242e-4
outer loop
vertex 1.5943793e2 1.392161e2 2.3666662e-1
vertex 1.5961388e2 1.3954086e2 1.1833332e0
vertex 1.5961491e2 1.3954088e2 2.3666662e-1
endloop
endfacet
facet normal -1.781317e-2 9.9984133e-1 -3.4083132e-6
outer loop
vertex 1.5961491e2 1.3954088e2 2.3666662e-1
vertex 1.5961388e2 1.3954086e2 1.1833332e0
vertex 1.5998473e2 1.3954747e2 1.1833332e0
endloop
endfacet
facet normal -1.7821891e-2 9.9984115e-1 0.0e0
outer loop
vertex 1.5961491e2 1.3954088e2 2.3666662e-1
vertex 1.5998473e2 1.3954747e2 1.1833332e0
vertex 1.5998473e2 1.3954747e2 2.3666662e-1
endloop
endfacet
facet normal 9.997522e-1 2.0913167e-2 7.622134e-3
outer loop
vertex 1.6106294e2 1.3857872e2 1.1833332e0
vertex 1.6107016e2 1.3857872e2 2.3666662e-1
vertex 1.610503e2 1.3952846e2 2.3666662e-1
endloop
endfacet
facet normal 9.999113e-1 1.3316516e-2 -1.2883667e-6
outer loop
vertex 1.6106294e2 1.3857872e2 1.1833332e0
vertex 1.610503e2 1.3952846e2 2.3666662e-1
vertex 1.610503e2 1.3952855e2 1.1833332e0
endloop
endfacet
facet normal 8.145002e-2 9.9667746e-1 -9.6389325e-5
outer loop
vertex 1.610503e2 1.3952855e2 1.1833332e0
vertex 1.610503e2 1.3952846e2 2.3666662e-1
vertex 1.6066846e2 1.3955966e2 2.3666662e-1
endloop
endfacet
facet normal 8.1212625e-2 9.9669677e-1 0.0e0
outer loop
vertex 1.610503e2 1.3952855e2 1.1833332e0
vertex 1.6066846e2 1.3955966e2 2.3666662e-1
vertex 1.6066846e2 1.3955966e2 1.1833332e0
endloop
endfacet
facet normal -9.9982756e-1 -1.4474933e-2 1.16355065e-2
outer loop
vertex 1.5961111e2 1.3067665e2 6.8633327e0
vertex 1.596001e2 1.3067665e2 5.916666e0
vertex 1.5961368e2 1.2973862e2 5.916666e0
endloop
endfacet
facet normal -9.999963e-1 -2.7163646e-3 -1.6293512e-5
outer loop
vertex 1.5961111e2 1.3067665e2 6.8633327e0
vertex 1.5961368e2 1.2973862e2 5.916666e0
vertex 1.5961366e2 1.2973856e2 6.8633327e0
endloop
endfacet
facet normal -1.24049805e-1 -9.92276e-1 -6.597525e-5
outer loop
vertex 1.5961366e2 1.2973856e2 6.8633327e0
vertex 1.5961368e2 1.2973862e2 5.916666e0
vertex 1.5998473e2 1.2969223e2 5.916666e0
endloop
endfacet
facet normal -1.2388406e-1 -9.9229664e-1 0.0e0
outer loop
vertex 1.5961366e2 1.2973856e2 6.8633327e0
vertex 1.5998473e2 1.2969223e2 5.916666e0
vertex 1.5998473e2 1.2969223e2 6.8633327e0
endloop
endfacet
facet normal 9.9691945e-1 7.837126e-2 3.1012753e-3
outer loop
vertex 1.6116827e2 1.3067665e2 5.916666e0
vertex 1.6116533e2 1.3067665e2 6.8633327e0
vertex 1.6121571e2 1.3003574e2 6.8633327e0
endloop
endfacet
facet normal 9.9906844e-1 1.332844e-2 -4.104189e-2
outer loop
vertex 1.6116827e2 1.3067665e2 5.916666e0
vertex 1.6121571e2 1.3003574e2 6.8633327e0
vertex 1.6117656e2 1.3005559e2 5.916666e0
endloop
endfacet
facet normal 8.884195e-1 -4.5668927e-1 -4.632177e-2
outer loop
vertex 1.6117656e2 1.3005559e2 5.916666e0
vertex 1.6121571e2 1.3003574e2 6.8633327e0
vertex 1.61044e2 1.297017e2 6.8633327e0
endloop
endfacet
facet normal 9.3790746e-1 -3.4688175e-1 1.6556918e-3
outer loop
vertex 1.6117656e2 1.3005559e2 5.916666e0
vertex 1.61044e2 1.297017e2 6.8633327e0
vertex 1.610457e2 1.2970177e2 5.916666e0
endloop
endfacet
facet normal 8.897747e-3 -9.999605e-1 -4.855183e-5
outer loop
vertex 1.610457e2 1.2970177e2 5.916666e0
vertex 1.61044e2 1.297017e2 6.8633327e0
vertex 1.6066846e2 1.2969836e2 6.8633327e0
endloop
endfacet
facet normal 9.019574e-3 -9.999594e-1 0.0e0
outer loop
vertex 1.610457e2 1.2970177e2 5.916666e0
vertex 1.6066846e2 1.2969836e2 6.8633327e0
vertex 1.6066846e2 1.2969836e2 5.916666e0
endloop
endfacet
facet normal -9.9946964e-1 -3.0416088e-2 1.163134e-2
outer loop
vertex 1.596001e2 1.3067665e2 5.916666e0
vertex 1.5961111e2 1.3067665e2 6.8633327e0
vertex 1.5958105e2 1.3166441e2 6.8633327e0
endloop
endfacet
facet normal -9.9988264e-1 -1.447292e-2 -5.0122454e-3
outer loop
vertex 1.596001e2 1.3067665e2 5.916666e0
vertex 1.5958105e2 1.3166441e2 6.8633327e0
vertex 1.595858e2 1.3166441e2 5.916666e0
endloop
endfacet
facet normal 9.9990636e-1 1.3330231e-2 3.1105673e-3
outer loop
vertex 1.6116533e2 1.3067665e2 6.8633327e0
vertex 1.6116827e2 1.3067665e2 5.916666e0
vertex 1.611551e2 1.3166441e2 5.916666e0
endloop
endfacet
facet normal 9.99968e-1 7.3838276e-3 -3.094641e-3
outer loop
vertex 1.6116533e2 1.3067665e2 6.8633327e0
vertex 1.611551e2 1.3166441e2 5.916666e0
vertex 1.6115804e2 1.3166441e2 6.8633327e0
endloop
endfacet
facet normal -9.999654e-1 -6.6423384e-3 -5.012661e-3
outer loop
vertex 1.595858e2 1.3166441e2 5.916666e0
vertex 1.5958105e2 1.3166441e2 6.8633327e0
vertex 1.595745e2 1.3265218e2 6.8633327e0
endloop
endfacet
facet normal -9.998905e-1 -1.4457589e-2 3.1427508e-3
outer loop
vertex 1.595858e2 1.3166441e2 5.916666e0
vertex 1.595745e2 1.3265218e2 6.8633327e0
vertex 1.5957152e2 1.3265218e2 5.916666e0
endloop
endfacet
facet normal 9.999066e-1 1.3314788e-2 -3.094451e-3
outer loop
vertex 1.6115804e2 1.3166441e2 6.8633327e0
vertex 1.611551e2 1.3166441e2 5.916666e0
vertex 1.6114195e2 1.3265218e2 5.916666e0
endloop
endfacet
facet normal 9.999284e-1 6.951027e-3 -9.734839e-3
outer loop
vertex 1.6115804e2 1.3166441e2 6.8633327e0
vertex 1.6114195e2 1.3265218e2 5.916666e0
vertex 1.6115117e2 1.3265218e2 6.8633327e0
endloop
endfacet
facet normal -9.9997044e-1 -7.0132166e-3 3.1430023e-3
outer loop
vertex 1.5957152e2 1.3265218e2 5.916666e0
vertex 1.595745e2 1.3265218e2 6.8633327e0
vertex 1.5956757e2 1.3363992e2 6.8633327e0
endloop
endfacet
facet normal -9.9983597e-1 -1.4457024e-2 1.0910393e-2
outer loop
vertex 1.5957152e2 1.3265218e2 5.916666e0
vertex 1.5956757e2 1.3363992e2 6.8633327e0
vertex 1.5955724e2 1.3363992e2 5.916666e0
endloop
endfacet
facet normal 9.9986386e-1 1.3329871e-2 -9.734211e-3
outer loop
vertex 1.6115117e2 1.3265218e2 6.8633327e0
vertex 1.6114195e2 1.3265218e2 5.916666e0
vertex 1.6112878e2 1.3363992e2 5.916666e0
endloop
endfacet
facet normal 9.996069e-1 2.7563967e-2 5.123649e-3
outer loop
vertex 1.6115117e2 1.3265218e2 6.8633327e0
vertex 1.6112878e2 1.3363992e2 5.916666e0
vertex 1.6112393e2 1.3363992e2 6.8633327e0
endloop
endfacet
facet normal -9.99511e-1 -2.9305648e-2 1.0906847e-2
outer loop
vertex 1.5955724e2 1.3363992e2 5.916666e0
vertex 1.5956757e2 1.3363992e2 6.8633327e0
vertex 1.595386e2 1.3462769e2 6.8633327e0
endloop
endfacet
facet normal -9.9988496e-1 -1.4457508e-2 -4.593227e-3
outer loop
vertex 1.5955724e2 1.3363992e2 5.916666e0
vertex 1.595386e2 1.3462769e2 6.8633327e0
vertex 1.5954295e2 1.3462769e2 5.916666e0
endloop
endfacet
facet normal 9.99898e-1 1.333012e-2 5.125141e-3
outer loop
vertex 1.6112393e2 1.3363992e2 6.8633327e0
vertex 1.6112878e2 1.3363992e2 5.916666e0
vertex 1.6111562e2 1.3462769e2 5.916666e0
endloop
endfacet
facet normal 9.999754e-1 6.812326e-3 -1.6762768e-3
outer loop
vertex 1.6112393e2 1.3363992e2 6.8633327e0
vertex 1.6111562e2 1.3462769e2 5.916666e0
vertex 1.611172e2 1.3462769e2 6.8633327e0
endloop
endfacet
facet normal -9.999632e-1 -7.2447667e-3 -4.593586e-3
outer loop
vertex 1.5954295e2 1.3462769e2 5.916666e0
vertex 1.595386e2 1.3462769e2 6.8633327e0
vertex 1.5953145e2 1.3561545e2 6.8633327e0
endloop
endfacet
facet normal -9.9989086e-1 -1.447304e-2 2.9493528e-3
outer loop
vertex 1.5954295e2 1.3462769e2 5.916666e0
vertex 1.5953145e2 1.3561545e2 6.8633327e0
vertex 1.5952866e2 1.3561545e2 5.916666e0
endloop
endfacet
facet normal 9.999097e-1 1.3330276e-2 -1.6761662e-3
outer loop
vertex 1.611172e2 1.3462769e2 6.8633327e0
vertex 1.6111562e2 1.3462769e2 5.916666e0
vertex 1.6110245e2 1.3561545e2 5.916666e0
endloop
endfacet
facet normal 9.999399e-1 6.441359e-3 -8.864608e-3
outer loop
vertex 1.611172e2 1.3462769e2 6.8633327e0
vertex 1.6110245e2 1.3561545e2 5.916666e0
vertex 1.6111084e2 1.3561545e2 6.8633327e0
endloop
endfacet
facet normal -9.999662e-1 -7.677431e-3 2.9495743e-3
outer loop
vertex 1.5952866e2 1.3561545e2 5.916666e0
vertex 1.5953145e2 1.3561545e2 6.8633327e0
vertex 1.5952386e2 1.366032e2 6.8633327e0
endloop
endfacet
facet normal -9.998452e-1 -1.4457157e-2 1.0024117e-2
outer loop
vertex 1.5952866e2 1.3561545e2 5.916666e0
vertex 1.5952386e2 1.366032e2 6.8633327e0
vertex 1.5951437e2 1.366032e2 5.916666e0
endloop
endfacet
facet normal 9.9987185e-1 1.3329976e-2 -8.864005e-3
outer loop
vertex 1.6111084e2 1.3561545e2 6.8633327e0
vertex 1.6110245e2 1.3561545e2 5.916666e0
vertex 1.6108928e2 1.366032e2 5.916666e0
endloop
endfacet
facet normal 9.995571e-1 2.8844215e-2 7.330642e-3
outer loop
vertex 1.6111084e2 1.3561545e2 6.8633327e0
vertex 1.6108928e2 1.366032e2 5.916666e0
vertex 1.6108234e2 1.366032e2 6.8633327e0
endloop
endfacet
facet normal -9.995587e-1 -2.7963677e-2 1.0021244e-2
outer loop
vertex 1.5951437e2 1.366032e2 5.916666e0
vertex 1.5952386e2 1.366032e2 6.8633327e0
vertex 1.5949623e2 1.3759096e2 6.8633327e0
endloop
endfacet
facet normal -9.9988717e-1 -1.4457541e-2 -4.0775053e-3
outer loop
vertex 1.5951437e2 1.366032e2 5.916666e0
vertex 1.5949623e2 1.3759096e2 6.8633327e0
vertex 1.5950009e2 1.3759096e2 5.916666e0
endloop
endfacet
facet normal 9.998843e-1 1.3329937e-2 7.3330407e-3
outer loop
vertex 1.6108234e2 1.366032e2 6.8633327e0
vertex 1.6108928e2 1.366032e2 5.916666e0
vertex 1.6107611e2 1.3759096e2 5.916666e0
endloop
endfacet
facet normal 9.999799e-1 6.3334843e-3 3.223623e-5
outer loop
vertex 1.6108234e2 1.366032e2 6.8633327e0
vertex 1.6107611e2 1.3759096e2 5.916666e0
vertex 1.6107608e2 1.3759096e2 6.8633327e0
endloop
endfacet
facet normal -9.9996006e-1 -7.955316e-3 -4.077802e-3
outer loop
vertex 1.5950009e2 1.3759096e2 5.916666e0
vertex 1.5949623e2 1.3759096e2 6.8633327e0
vertex 1.5948837e2 1.3857872e2 6.8633327e0
endloop
endfacet
facet normal -9.998919e-1 -1.4457609e-2 2.7076048e-3
outer loop
vertex 1.5950009e2 1.3759096e2 5.916666e0
vertex 1.5948837e2 1.3857872e2 6.8633327e0
vertex 1.5948581e2 1.3857872e2 5.916666e0
endloop
endfacet
facet normal 9.999111e-1 1.3330295e-2 3.2234013e-5
outer loop
vertex 1.6107608e2 1.3759096e2 6.8633327e0
vertex 1.6107611e2 1.3759096e2 5.916666e0
vertex 1.6106294e2 1.3857872e2 5.916666e0
endloop
endfacet
facet normal 9.99953e-1 5.9934775e-3 -7.623663e-3
outer loop
vertex 1.6107608e2 1.3759096e2 6.8633327e0
vertex 1.6106294e2 1.3857872e2 5.916666e0
vertex 1.6107016e2 1.3857872e2 6.8633327e0
endloop
endfacet
facet normal -9.96879e-1 -7.88988e-2 2.6994462e-3
outer loop
vertex 1.5948581e2 1.3857872e2 5.916666e0
vertex 1.5948837e2 1.3857872e2 6.8633327e0
vertex 1.5943793e2 1.392161e2 6.8633327e0
endloop
endfacet
facet normal -9.990629e-1 -1.4468081e-2 -4.0791146e-2
outer loop
vertex 1.5948581e2 1.3857872e2 5.916666e0
vertex 1.5943793e2 1.392161e2 6.8633327e0
vertex 1.5947687e2 1.3919617e2 5.916666e0
endloop
endfacet
facet normal -8.77151e-1 4.779927e-1 -4.6143025e-2
outer loop
vertex 1.5947687e2 1.3919617e2 5.916666e0
vertex 1.5943793e2 1.392161e2 6.8633327e0
vertex 1.5961491e2 1.3954088e2 6.8633327e0
endloop
endfacet
facet normal -9.292826e-1 3.6936823e-1 1.0125868e-3
outer loop
vertex 1.5947687e2 1.3919617e2 5.916666e0
vertex 1.5961491e2 1.3954088e2 6.8633327e0
vertex 1.5961388e2 1.3954086e2 5.916666e0
endloop
endfacet
facet normal -1.7821893e-2 9.9984115e-1 3.417875e-6
outer loop
vertex 1.5961388e2 1.3954086e2 5.916666e0
vertex 1.5961491e2 1.3954088e2 6.8633327e0
vertex 1.5998473e2 1.3954747e2 6.8633327e0
endloop
endfacet
facet normal -1.781317e-2 9.998413e-1 0.0e0
outer loop
vertex 1.5961388e2 1.3954086e2 5.916666e0
vertex 1.5998473e2 1.3954747e2 6.8633327e0
vertex 1.5998473e2 1.3954747e2 5.916666e0
endloop
endfacet
facet normal 9.9988234e-1 1.331613e-2 -7.6231244e-3
outer loop
vertex 1.6107016e2 1.3857872e2 6.8633327e0
vertex 1.6106294e2 1.3857872e2 5.916666e0
vertex 1.610503e2 1.3952855e2 5.916666e0
endloop
endfacet
facet normal 9.9978125e-1 2.0913774e-2 2.0215487e-6
outer loop
vertex 1.6107016e2 1.3857872e2 6.8633327e0
vertex 1.610503e2 1.3952855e2 5.916666e0
vertex 1.610503e2 1.3952846e2 6.8633327e0
endloop
endfacet
facet normal 8.1212625e-2 9.966968e-1 9.639117e-5
outer loop
vertex 1.610503e2 1.3952846e2 6.8633327e0
vertex 1.610503e2 1.3952855e2 5.916666e0
vertex 1.6066846e2 1.3955966e2 5.916666e0
endloop
endfacet
facet normal 8.145002e-2 9.9667746e-1 0.0e0
outer loop
vertex 1.610503e2 1.3952846e2 6.8633327e0
vertex 1.6066846e2 1.3955966e2 5.916666e0
vertex 1.6066846e2 1.3955966e2 6.8633327e0
endloop
endfacet
facet normal -1.8215202e-6 -5.8657906e-7 1.0e0
outer loop
vertex 1.5998473e2 1.2986374e2 7.0999994e0
vertex 1.5998473e2 1.3067665e2 7.1e0
vertex 1.5972295e2 1.3067665e2 7.0999994e0
endloop
endfacet
facet normal -9.973086e-1 -2.7090632e-3 -7.326818e-2
outer loop
vertex 1.596001e2 1.3067665e2 7.0132914e0
vertex 1.5961111e2 1.3067665e2 6.8633327e0
vertex 1.5961366e2 1.2973856e2 6.8633327e0
endloop
endfacet
facet normal -8.47598e-1 -9.5690794e-2 5.219396e-1
outer loop
vertex 1.596001e2 1.3067665e2 7.0132914e0
vertex 1.5961366e2 1.2973856e2 6.8633327e0
vertex 1.597194e2 1.3009279e2 7.0999975e0
endloop
endfacet
facet normal -6.7449674e-2 -5.4026395e-1 8.38788e-1
outer loop
vertex 1.5961366e2 1.2973856e2 6.8633327e0
vertex 1.5998473e2 1.2969223e2 6.8633327e0
vertex 1.597194e2 1.3009279e2 7.0999975e0
endloop
endfacet
facet normal -5.7293564e-1 -6.636563e-1 4.8094177e-1
outer loop
vertex 1.5998473e2 1.2969223e2 6.8633327e0
vertex 1.5998473e2 1.2986374e2 7.0999994e0
vertex 1.597194e2 1.3009279e2 7.0999975e0
endloop
endfacet
facet normal -9.956946e-6 -3.2064074e-6 9.9999994e-1
outer loop
vertex 1.5998473e2 1.2986374e2 7.0999994e0
vertex 1.5972295e2 1.3067665e2 7.0999994e0
vertex 1.597194e2 1.3009279e2 7.0999975e0
endloop
endfacet
facet normal -5.7664186e-1 3.4935914e-3 8.169896e-1
outer loop
vertex 1.5972295e2 1.3067665e2 7.0999994e0
vertex 1.596001e2 1.3067665e2 7.0132914e0
vertex 1.597194e2 1.3009279e2 7.0999975e0
endloop
endfacet
facet normal 7.2945184e-3 -8.130847e-1 5.820997e-1
outer loop
vertex 1.5998473e2 1.2969223e2 6.8633327e0
vertex 1.6066846e2 1.2969836e2 6.8633327e0
vertex 1.6066846e2 1.298678e2 7.1e0
endloop
endfacet
facet normal 4.8063532e-3 -8.097223e-1 5.867936e-1
outer loop
vertex 1.5998473e2 1.2969223e2 6.8633327e0
vertex 1.6066846e2 1.298678e2 7.1e0
vertex 1.5998473e2 1.2986374e2 7.0999994e0
endloop
endfacet
facet normal -6.974045e-7 0.0e0 1.0e0
outer loop
vertex 1.5998473e2 1.2986374e2 7.0999994e0
vertex 1.6066846e2 1.298678e2 7.1e0
vertex 1.6066846e2 1.3067665e2 7.1e0
endloop
endfacet
facet normal 0.0e0 -5.8657906e-7 1.0e0
outer loop
vertex 1.5998473e2 1.2986374e2 7.0999994e0
vertex 1.6066846e2 1.3067665e2 7.1e0
vertex 1.5998473e2 1.3067665e2 7.1e0
endloop
endfacet
facet normal 9.9681306e-1 7.83629e-2 -1.4929298e-2
outer loop
vertex 1.6121571e2 1.3003574e2 6.8633327e0
vertex 1.6116533e2 1.3067665e2 6.8633327e0
vertex 1.611683e2 1.3067665e2 7.062001e0
endloop
endfacet
facet normal 0.0e0 -1.0e0 0.0e0
outer loop
vertex 1.611683e2 1.3067665e2 7.062001e0
vertex 1.6097327e2 1.3067665e2 7.1e0
vertex 1.6066846e2 1.3067665e2 7.1e0
endloop
endfacet
facet normal 7.580183e-2 0.0e0 9.971229e-1
outer loop
vertex 1.611683e2 1.3067665e2 7.062001e0
vertex 1.6066846e2 1.3067665e2 7.1e0
vertex 1.6066846e2 1.298678e2 7.1e0
endloop
endfacet
facet normal -1.0471685e-2 5.3380087e-2 9.985193e-1
outer loop
vertex 1.611683e2 1.3067665e2 7.062001e0
vertex 1.6066846e2 1.298678e2 7.1e0
vertex 1.6102176e2 1.2993709e2 7.100001e0
endloop
endfacet
facet normal 1.5747645e-1 -8.0296105e-1 5.7485193e-1
outer loop
vertex 1.6066846e2 1.298678e2 7.1e0
vertex 1.6066846e2 1.2969836e2 6.8633327e0
vertex 1.6102176e2 1.2993709e2 7.100001e0
endloop
endfacet
facet normal 6.3062604e-3 -7.0871997e-1 7.0546174e-1
outer loop
vertex 1.6066846e2 1.2969836e2 6.8633327e0
vertex 1.61044e2 1.297017e2 6.8633327e0
vertex 1.6102176e2 1.2993709e2 7.100001e0
endloop
endfacet
facet normal 7.8312147e-1 -4.0256116e-1 4.7398877e-1
outer loop
vertex 1.61044e2 1.297017e2 6.8633327e0
vertex 1.6121571e2 1.3003574e2 6.8633327e0
vertex 1.6102176e2 1.2993709e2 7.100001e0
endloop
endfacet
facet normal 7.9242396e-1 -1.2635872e-1 5.967392e-1
outer loop
vertex 1.6121571e2 1.3003574e2 6.8633327e0
vertex 1.611683e2 1.3067665e2 7.062001e0
vertex 1.6102176e2 1.2993709e2 7.100001e0
endloop
endfacet
facet normal -9.9685323e-1 -3.0336466e-2 -7.323473e-2
outer loop
vertex 1.5958105e2 1.3166441e2 6.8633327e0
vertex 1.5961111e2 1.3067665e2 6.8633327e0
vertex 1.596001e2 1.3067665e2 7.0132914e0
endloop
endfacet
facet normal -9.9940604e-1 -1.4522742e-2 3.125289e-2
outer loop
vertex 1.5958105e2 1.3166441e2 6.8633327e0
vertex 1.596001e2 1.3067665e2 7.0132914e0
vertex 1.5958583e2 1.3166441e2 7.01606e0
endloop
endfacet
facet normal -5.7661283e-1 -1.0618192e-2 8.169485e-1
outer loop
vertex 1.5958583e2 1.3166441e2 7.01606e0
vertex 1.596001e2 1.3067665e2 7.0132914e0
vertex 1.5972295e2 1.3067665e2 7.0999994e0
endloop
endfacet
facet normal -5.493184e-1 -5.2446118e-3 8.355967e-1
outer loop
vertex 1.5958583e2 1.3166441e2 7.01606e0
vertex 1.5972295e2 1.3067665e2 7.0999994e0
vertex 1.5971352e2 1.3166441e2 7.1e0
endloop
endfacet
facet normal -1.8215202e-6 -5.001344e-7 1.0e0
outer loop
vertex 1.5971352e2 1.3166441e2 7.1e0
vertex 1.5972295e2 1.3067665e2 7.0999994e0
vertex 1.5998473e2 1.3067665e2 7.1e0
endloop
endfacet
facet normal -0.0e0 0.0e0 1.0e0
outer loop
vertex 1.5971352e2 1.3166441e2 7.1e0
vertex 1.5998473e2 1.3067665e2 7.1e0
vertex 1.5998473e2 1.3166441e2 7.1e0
endloop
endfacet
facet normal 9.998569e-1 7.383007e-3 1.5225917e-2
outer loop
vertex 1.6116533e2 1.3067665e2 6.8633327e0
vertex 1.6115804e2 1.3166441e2 6.8633327e0
vertex 1.6115514e2 1.3166441e2 7.0537157e0
endloop
endfacet
facet normal 9.9980074e-1 1.3203219e-2 -1.49740465e-2
outer loop
vertex 1.6116533e2 1.3067665e2 6.8633327e0
vertex 1.6115514e2 1.3166441e2 7.0537157e0
vertex 1.611683e2 1.3067665e2 7.062001e0
endloop
endfacet
facet normal 2.4307138e-1 1.137654e-2 9.699417e-1
outer loop
vertex 1.611683e2 1.3067665e2 7.062001e0
vertex 1.6115514e2 1.3166441e2 7.0537157e0
vertex 1.6097044e2 1.3166441e2 7.1000004e0
endloop
endfacet
facet normal 1.9123161e-1 5.460365e-4 9.8154473e-1
outer loop
vertex 1.611683e2 1.3067665e2 7.062001e0
vertex 1.6097044e2 1.3166441e2 7.1000004e0
vertex 1.6097327e2 1.3067665e2 7.1e0
endloop
endfacet
facet normal -1.5790005e-6 -4.872573e-7 1.0e0
outer loop
vertex 1.6097327e2 1.3067665e2 7.1e0
vertex 1.6097044e2 1.3166441e2 7.1000004e0
vertex 1.6066846e2 1.3166441e2 7.1e0
endloop
endfacet
facet normal 0.0e0 0.0e0 1.0e0
outer loop
vertex 1.6097327e2 1.3067665e2 7.1e0
vertex 1.6066846e2 1.3166441e2 7.1e0
vertex 1.6066846e2 1.3067665e2 7.1e0
endloop
endfacet
facet normal -9.994894e-1 -6.639177e-3 3.1255495e-2
outer loop
vertex 1.595745e2 1.3265218e2 6.8633327e0
vertex 1.5958105e2 1.3166441e2 6.8633327e0
vertex 1.5958583e2 1.3166441e2 7.01606e0
endloop
endfacet
facet normal -9.997252e-1 -1.4341481e-2 -1.8541638e-2
outer loop
vertex 1.595745e2 1.3265218e2 6.8633327e0
vertex 1.5958583e2 1.3166441e2 7.01606e0
vertex 1.5957153e2 1.3265218e2 7.0229406e0
endloop
endfacet
facet normal -5.492737e-1 -1.3770829e-2 8.3552897e-1
outer loop
vertex 1.5957153e2 1.3265218e2 7.0229406e0
vertex 1.5958583e2 1.3166441e2 7.01606e0
vertex 1.5971352e2 1.3166441e2 7.1e0
endloop
endfacet
facet normal -4.82732e-1 -1.0667983e-3 8.757676e-1
outer loop
vertex 1.5957153e2 1.3265218e2 7.0229406e0
vertex 1.5971352e2 1.3166441e2 7.1e0
vertex 1.5971133e2 1.3265218e2 7.1000004e0
endloop
endfacet
facet normal 0.0e0 -4.827448e-7 1.0e0
outer loop
vertex 1.5971133e2 1.3265218e2 7.1000004e0
vertex 1.5971352e2 1.3166441e2 7.1e0
vertex 1.5998473e2 1.3166441e2 7.1e0
endloop
endfacet
facet normal 1.7441536e-6 0.0e0 1.0e0
outer loop
vertex 1.5971133e2 1.3265218e2 7.1000004e0
vertex 1.5998473e2 1.3166441e2 7.1e0
vertex 1.5998473e2 1.3265218e2 7.1e0
endloop
endfacet
facet normal 9.9869907e-1 6.9424813e-3 5.051754e-2
outer loop
vertex 1.6115804e2 1.3166441e2 6.8633327e0
vertex 1.6115117e2 1.3265218e2 6.8633327e0
vertex 1.6114195e2 1.3265218e2 7.045533e0
endloop
endfacet
facet normal 9.997934e-1 1.3470293e-2 1.522495e-2
outer loop
vertex 1.6115804e2 1.3166441e2 6.8633327e0
vertex 1.6114195e2 1.3265218e2 7.045533e0
vertex 1.6115514e2 1.3166441e2 7.0537157e0
endloop
endfacet
facet normal 2.985301e-1 1.1890003e-2 9.543262e-1
outer loop
vertex 1.6115514e2 1.3166441e2 7.0537157e0
vertex 1.6114195e2 1.3265218e2 7.045533e0
vertex 1.6096783e2 1.3265218e2 7.1000004e0
endloop
endfacet
facet normal 2.4308708e-1 6.421333e-4 9.7000426e-1
outer loop
vertex 1.6115514e2 1.3166441e2 7.0537157e0
vertex 1.6096783e2 1.3265218e2 7.1000004e0
vertex 1.6097044e2 1.3166441e2 7.1000004e0
endloop
endfacet
facet normal -1.5927626e-6 -4.2074086e-9 1.0e0
outer loop
vertex 1.6097044e2 1.3166441e2 7.1000004e0
vertex 1.6096783e2 1.3265218e2 7.1000004e0
vertex 1.6066846e2 1.3265218e2 7.1e0
endloop
endfacet
facet normal -1.5790005e-6 0.0e0 1.0e0
outer loop
vertex 1.6097044e2 1.3166441e2 7.1000004e0
vertex 1.6066846e2 1.3265218e2 7.1e0
vertex 1.6066846e2 1.3166441e2 7.1e0
endloop
endfacet
facet normal -9.9980354e-1 -7.012047e-3 -1.854309e-2
outer loop
vertex 1.5956757e2 1.3363992e2 6.8633327e0
vertex 1.595745e2 1.3265218e2 6.8633327e0
vertex 1.5957153e2 1.3265218e2 7.0229406e0
endloop
endfacet
facet normal -9.980007e-1 -1.39686605e-2 -6.1639506e-2
outer loop
vertex 1.5956757e2 1.3363992e2 6.8633327e0
vertex 1.5957153e2 1.3265218e2 7.0229406e0
vertex 1.5955727e2 1.3363992e2 7.030094e0
endloop
endfacet
facet normal -4.8268947e-1 -1.3313909e-2 8.7569034e-1
outer loop
vertex 1.5955727e2 1.3363992e2 7.030094e0
vertex 1.5957153e2 1.3265218e2 7.0229406e0
vertex 1.5971133e2 1.3265218e2 7.1000004e0
endloop
endfacet
facet normal -4.184062e-1 -9.820219e-4 9.082596e-1
outer loop
vertex 1.5955727e2 1.3363992e2 7.030094e0
vertex 1.5971133e2 1.3265218e2 7.1000004e0
vertex 1.5970901e2 1.3363992e2 7.1e0
endloop
endfacet
facet normal 1.7441536e-6 4.868477e-7 1.0e0
outer loop
vertex 1.5970901e2 1.3363992e2 7.1e0
vertex 1.5971133e2 1.3265218e2 7.1000004e0
vertex 1.5998473e2 1.3265218e2 7.1e0
endloop
endfacet
facet normal -0.0e0 0.0e0 1.0e0
outer loop
vertex 1.5970901e2 1.3363992e2 7.1e0
vertex 1.5998473e2 1.3265218e2 7.1e0
vertex 1.5998473e2 1.3363992e2 7.1e0
endloop
endfacet
facet normal 9.992601e-1 2.7554404e-2 -2.6834153e-2
outer loop
vertex 1.6115117e2 1.3265218e2 6.8633327e0
vertex 1.6112393e2 1.3363992e2 6.8633327e0
vertex 1.6112877e2 1.3363992e2 7.043456e0
endloop
endfacet
facet normal 9.9863297e-1 1.3435112e-2 5.0514203e-2
outer loop
vertex 1.6115117e2 1.3265218e2 6.8633327e0
vertex 1.6112877e2 1.3363992e2 7.043456e0
vertex 1.6114195e2 1.3265218e2 7.045533e0
endloop
endfacet
facet normal 3.1380644e-1 6.185021e-3 9.494669e-1
outer loop
vertex 1.6114195e2 1.3265218e2 7.045533e0
vertex 1.6112877e2 1.3363992e2 7.043456e0
vertex 1.6095769e2 1.3363992e2 7.1e0
endloop
endfacet
facet normal 2.985498e-1 3.0674534e-3 9.5438915e-1
outer loop
vertex 1.6114195e2 1.3265218e2 7.045533e0
vertex 1.6095769e2 1.3363992e2 7.1e0
vertex 1.6096783e2 1.3265218e2 7.1000004e0
endloop
endfacet
facet normal 0.0e0 4.827522e-7 1.0e0
outer loop
vertex 1.6096783e2 1.3265218e2 7.1000004e0
vertex 1.6095769e2 1.3363992e2 7.1e0
vertex 1.6066846e2 1.3363992e2 7.1e0
endloop
endfacet
facet normal -1.5927626e-6 0.0e0 1.0e0
outer loop
vertex 1.6096783e2 1.3265218e2 7.1000004e0
vertex 1.6066846e2 1.3363992e2 7.1e0
vertex 1.6066846e2 1.3265218e2 7.1e0
endloop
endfacet
facet normal -9.9767095e-1 -2.9251697e-2 -6.1619148e-2
outer loop
vertex 1.595386e2 1.3462769e2 6.8633327e0
vertex 1.5956757e2 1.3363992e2 6.8633327e0
vertex 1.5955727e2 1.3363992e2 7.030094e0
endloop
endfacet
facet normal -9.995699e-1 -1.4589847e-2 2.543855e-2
outer loop
vertex 1.595386e2 1.3462769e2 6.8633327e0
vertex 1.5955727e2 1.3363992e2 7.030094e0
vertex 1.5954292e2 1.3462769e2 7.0330114e0
endloop
endfacet
facet normal -4.183903e-1 -8.757812e-3 9.082251e-1
outer loop
vertex 1.5954292e2 1.3462769e2 7.0330114e0
vertex 1.5955727e2 1.3363992e2 7.030094e0
vertex 1.5970901e2 1.3363992e2 7.1e0
endloop
endfacet
facet normal -3.946571e-1 -4.048584e-3 9.188196e-1
outer loop
vertex 1.5954292e2 1.3462769e2 7.0330114e0
vertex 1.5970901e2 1.3363992e2 7.1e0
vertex 1.5969888e2 1.3462769e2 7.1000004e0
endloop
endfacet
facet normal 0.0e0 -4.827448e-7 1.0e0
outer loop
vertex 1.5969888e2 1.3462769e2 7.1000004e0
vertex 1.5970901e2 1.3363992e2 7.1e0
vertex 1.5998473e2 1.3363992e2 7.1e0
endloop
endfacet
facet normal 1.6681792e-6 0.0e0 1.0e0
outer loop
vertex 1.5969888e2 1.3462769e2 7.1000004e0
vertex 1.5998473e2 1.3363992e2 7.1e0
vertex 1.5998473e2 1.3462769e2 7.1e0
endloop
endfacet
facet normal 9.9993294e-1 6.8120374e-3 9.367698e-3
outer loop
vertex 1.6112393e2 1.3363992e2 6.8633327e0
vertex 1.611172e2 1.3462769e2 6.8633327e0
vertex 1.6111559e2 1.3462769e2 7.0359817e0
endloop
endfacet
facet normal 9.9955326e-1 1.313785e-2 -2.6842028e-2
outer loop
vertex 1.6112393e2 1.3363992e2 6.8633327e0
vertex 1.6111559e2 1.3462769e2 7.0359817e0
vertex 1.6112877e2 1.3363992e2 7.043456e0
endloop
endfacet
facet normal 3.7074694e-1 1.1975501e-2 9.2865676e-1
outer loop
vertex 1.6112877e2 1.3363992e2 7.043456e0
vertex 1.6111559e2 1.3462769e2 7.0359817e0
vertex 1.6095523e2 1.3462769e2 7.1e0
endloop
endfacet
facet normal 3.1381232e-1 7.804847e-4 9.4948465e-1
outer loop
vertex 1.6112877e2 1.3363992e2 7.043456e0
vertex 1.6095523e2 1.3462769e2 7.1e0
vertex 1.6095769e2 1.3363992e2 7.1e0
endloop
endfacet
facet normal 0.0e0 0.0e0 1.0e0
outer loop
vertex 1.6095769e2 1.3363992e2 7.1e0
vertex 1.6095523e2 1.3462769e2 7.1e0
vertex 1.6066846e2 1.3462769e2 7.1e0
endloop
endfacet
facet normal 0.0e0 0.0e0 1.0e0
outer loop
vertex 1.6095769e2 1.3363992e2 7.1e0
vertex 1.6066846e2 1.3462769e2 7.1e0
vertex 1.6066846e2 1.3363992e2 7.1e0
endloop
endfacet
facet normal -9.996501e-1 -7.242499e-3 2.5440592e-2
outer loop
vertex 1.5953145e2 1.3561545e2 6.8633327e0
vertex 1.595386e2 1.3462769e2 6.8633327e0
vertex 1.5954292e2 1.3462769e2 7.0330114e0
endloop
endfacet
facet normal -9.997741e-1 -1.4312946e-2 -1.5710717e-2
outer loop
vertex 1.5953145e2 1.3561545e2 6.8633327e0
vertex 1.5954292e2 1.3462769e2 7.0330114e0
vertex 1.5952866e2 1.3561545e2 7.0410285e0
endloop
endfacet
facet normal -3.946262e-1 -1.3156783e-2 9.187476e-1
outer loop
vertex 1.5952866e2 1.3561545e2 7.0410285e0
vertex 1.5954292e2 1.3462769e2 7.0330114e0
vertex 1.5969888e2 1.3462769e2 7.1000004e0
endloop
endfacet
facet normal -3.3182853e-1 -8.662993e-4 9.433393e-1
outer loop
vertex 1.5952866e2 1.3561545e2 7.0410285e0
vertex 1.5969888e2 1.3462769e2 7.1000004e0
vertex 1.596963e2 1.3561545e2 7.1000004e0
endloop
endfacet
facet normal 1.6681792e-6 4.3550883e-9 1.0e0
outer loop
vertex 1.596963e2 1.3561545e2 7.1000004e0
vertex 1.5969888e2 1.3462769e2 7.1000004e0
vertex 1.5998473e2 1.3462769e2 7.1e0
endloop
endfacet
facet normal 1.6532642e-6 0.0e0 9.9999994e-1
outer loop
vertex 1.596963e2 1.3561545e2 7.1000004e0
vertex 1.5998473e2 1.3462769e2 7.1e0
vertex 1.5998473e2 1.3561545e2 7.1e0
endloop
endfacet
facet normal 9.9868983e-1 6.433306e-3 5.076717e-2
outer loop
vertex 1.611172e2 1.3462769e2 6.8633327e0
vertex 1.6111084e2 1.3561545e2 6.8633327e0
vertex 1.6110243e2 1.3561545e2 7.0287266e0
endloop
endfacet
facet normal 9.9986655e-1 1.3383057e-2 9.367079e-3
outer loop
vertex 1.611172e2 1.3462769e2 6.8633327e0
vertex 1.6110243e2 1.3561545e2 7.0287266e0
vertex 1.6111559e2 1.3462769e2 7.0359817e0
endloop
endfacet
facet normal 4.303645e-1 1.2360093e-2 9.025705e-1
outer loop
vertex 1.6111559e2 1.3462769e2 7.0359817e0
vertex 1.6110243e2 1.3561545e2 7.0287266e0
vertex 1.6095296e2 1.3561545e2 7.0999994e0
endloop
endfacet
facet normal 3.7077338e-1 8.538703e-4 9.2872304e-1
outer loop
vertex 1.6111559e2 1.3462769e2 7.0359817e0
vertex 1.6095296e2 1.3561545e2 7.0999994e0
vertex 1.6095523e2 1.3462769e2 7.1e0
endloop
endfacet
facet normal 1.6760524e-6 4.866026e-7 1.0e0
outer loop
vertex 1.6095523e2 1.3462769e2 7.1e0
vertex 1.6095296e2 1.3561545e2 7.0999994e0
vertex 1.6066846e2 1.3561545e2 7.1e0
endloop
endfacet
facet normal 0.0e0 0.0e0 1.0e0
outer loop
vertex 1.6095523e2 1.3462769e2 7.1e0
vertex 1.6066846e2 1.3561545e2 7.1e0
vertex 1.6066846e2 1.3462769e2 7.1e0
endloop
endfacet
facet normal -9.998471e-1 -7.6765176e-3 -1.5711863e-2
outer loop
vertex 1.5952386e2 1.366032e2 6.8633327e0
vertex 1.5953145e2 1.3561545e2 6.8633327e0
vertex 1.5952866e2 1.3561545e2 7.0410285e0
endloop
endfacet
facet normal -9.9860626e-1 -1.399853e-2 -5.0887134e-2
outer loop
vertex 1.5952386e2 1.366032e2 6.8633327e0
vertex 1.5952866e2 1.3561545e2 7.0410285e0
vertex 1.5951439e2 1.366032e2 7.0492835e0
endloop
endfacet
facet normal -3.3180198e-1 -1.2675771e-2 9.432638e-1
outer loop
vertex 1.5951439e2 1.366032e2 7.0492835e0
vertex 1.5952866e2 1.3561545e2 7.0410285e0
vertex 1.596963e2 1.3561545e2 7.1000004e0
endloop
endfacet
facet normal -2.72385e-1 -7.6115166e-4 9.62188e-1
outer loop
vertex 1.5951439e2 1.366032e2 7.0492835e0
vertex 1.596963e2 1.3561545e2 7.1000004e0
vertex 1.5969354e2 1.366032e2 7.1e0
endloop
endfacet
facet normal 1.6532642e-6 4.8737496e-7 1.0e0
outer loop
vertex 1.5969354e2 1.366032e2 7.1e0
vertex 1.596963e2 1.3561545e2 7.1000004e0
vertex 1.5998473e2 1.3561545e2 7.1e0
endloop
endfacet
facet normal -0.0e0 0.0e0 1.0e0
outer loop
vertex 1.5969354e2 1.366032e2 7.1e0
vertex 1.5998473e2 1.3561545e2 7.1e0
vertex 1.5998473e2 1.366032e2 7.1e0
endloop
endfacet
facet normal 9.9869126e-1 2.8819228e-2 -4.2251803e-2
outer loop
vertex 1.6111084e2 1.3561545e2 6.8633327e0
vertex 1.6108234e2 1.366032e2 6.8633327e0
vertex 1.6108925e2 1.366032e2 7.026715e0
endloop
endfacet
facet normal 9.9862045e-1 1.34321125e-2 5.0763648e-2
outer loop
vertex 1.6111084e2 1.3561545e2 6.8633327e0
vertex 1.6108925e2 1.366032e2 7.026715e0
vertex 1.6110243e2 1.3561545e2 7.0287266e0
endloop
endfacet
facet normal 4.4815856e-1 7.8023076e-3 8.9392006e-1
outer loop
vertex 1.6110243e2 1.3561545e2 7.0287266e0
vertex 1.6108925e2 1.366032e2 7.026715e0
vertex 1.6094307e2 1.366032e2 7.1000004e0
endloop
endfacet
facet normal 4.3039343e-1 4.3075182e-3 9.026312e-1
outer loop
vertex 1.6110243e2 1.3561545e2 7.0287266e0
vertex 1.6094307e2 1.366032e2 7.1000004e0
vertex 1.6095296e2 1.3561545e2 7.0999994e0
endloop
endfacet
facet normal -1.7364006e-6 -9.828865e-7 1.0e0
outer loop
vertex 1.6095296e2 1.3561545e2 7.0999994e0
vertex 1.6094307e2 1.366032e2 7.1000004e0
vertex 1.6066846e2 1.366032e2 7.1e0
endloop
endfacet
facet normal 1.6760525e-6 0.0e0 1.0e0
outer loop
vertex 1.6095296e2 1.3561545e2 7.0999994e0
vertex 1.6066846e2 1.366032e2 7.1e0
vertex 1.6066846e2 1.3561545e2 7.1e0
endloop
endfacet
facet normal -9.9831456e-1 -2.7928872e-2 -5.0872274e-2
outer loop
vertex 1.5949623e2 1.3759096e2 6.8633327e0
vertex 1.5952386e2 1.366032e2 6.8633327e0
vertex 1.5951439e2 1.366032e2 7.0492835e0
endloop
endfacet
facet normal -9.9968463e-1 -1.4519621e-2 2.0490889e-2
outer loop
vertex 1.5949623e2 1.3759096e2 6.8633327e0
vertex 1.5951439e2 1.366032e2 7.0492835e0
vertex 1.595001e2 1.3759096e2 7.0524173e0
endloop
endfacet
facet normal -2.7237844e-1 -6.9909296e-3 9.6216476e-1
outer loop
vertex 1.595001e2 1.3759096e2 7.0524173e0
vertex 1.5951439e2 1.366032e2 7.0492835e0
vertex 1.5969354e2 1.366032e2 7.1e0
endloop
endfacet
facet normal -2.5159112e-1 -2.6471973e-3 9.6782994e-1
outer loop
vertex 1.595001e2 1.3759096e2 7.0524173e0
vertex 1.5969354e2 1.366032e2 7.1e0
vertex 1.5968315e2 1.3759096e2 7.1000004e0
endloop
endfacet
facet normal 0.0e0 -4.827448e-7 1.0e0
outer loop
vertex 1.5968315e2 1.3759096e2 7.1000004e0
vertex 1.5969354e2 1.366032e2 7.1e0
vertex 1.5998473e2 1.366032e2 7.1e0
endloop
endfacet
facet normal 1.5811577e-6 0.0e0 1.0e0
outer loop
vertex 1.5968315e2 1.3759096e2 7.1000004e0
vertex 1.5998473e2 1.366032e2 7.1e0
vertex 1.5998473e2 1.3759096e2 7.1e0
endloop
endfacet
facet normal 9.999799e-1 6.3334843e-3 -9.7248296e-5
outer loop
vertex 1.6108234e2 1.366032e2 6.8633327e0
vertex 1.6107608e2 1.3759096e2 6.8633327e0
vertex 1.610761e2 1.3759096e2 7.020235e0
endloop
endfacet
facet normal 9.990215e-1 1.3025737e-2 -4.2265765e-2
outer loop
vertex 1.6108234e2 1.366032e2 6.8633327e0
vertex 1.610761e2 1.3759096e2 7.020235e0
vertex 1.6108925e2 1.366032e2 7.026715e0
endloop
endfacet
facet normal 5.083297e-1 1.2417589e-2 8.61073e-1
outer loop
vertex 1.6108925e2 1.366032e2 7.026715e0
vertex 1.610761e2 1.3759096e2 7.020235e0
vertex 1.6094098e2 1.3759096e2 7.1000004e0
endloop
endfacet
facet normal 4.4817194e-1 9.484877e-4 8.939469e-1
outer loop
vertex 1.6108925e2 1.366032e2 7.026715e0
vertex 1.6094098e2 1.3759096e2 7.1000004e0
vertex 1.6094307e2 1.366032e2 7.1000004e0
endloop
endfacet
facet normal -1.74972e-6 -3.7030254e-9 1.0e0
outer loop
vertex 1.6094307e2 1.366032e2 7.1000004e0
vertex 1.6094098e2 1.3759096e2 7.1000004e0
vertex 1.6066846e2 1.3759096e2 7.1e0
endloop
endfacet
facet normal -1.7364005e-6 0.0e0 1.0e0
outer loop
vertex 1.6094307e2 1.366032e2 7.1000004e0
vertex 1.6066846e2 1.3759096e2 7.1e0
vertex 1.6066846e2 1.366032e2 7.1e0
endloop
endfacet
facet normal -9.997584e-1 -7.953712e-3 2.0492403e-2
outer loop
vertex 1.5948837e2 1.3857872e2 6.8633327e0
vertex 1.5949623e2 1.3759096e2 6.8633327e0
vertex 1.595001e2 1.3759096e2 7.0524173e0
endloop
endfacet
facet normal -9.998109e-1 -1.4383217e-2 -1.309157e-2
outer loop
vertex 1.5948837e2 1.3857872e2 6.8633327e0
vertex 1.595001e2 1.3759096e2 7.0524173e0
vertex 1.5948578e2 1.3857872e2 7.0614376e0
endloop
endfacet
facet normal -2.5157237e-1 -1.2486832e-2 9.677579e-1
outer loop
vertex 1.5948578e2 1.3857872e2 7.0614376e0
vertex 1.595001e2 1.3759096e2 7.0524173e0
vertex 1.5968315e2 1.3759096e2 7.1000004e0
endloop
endfacet
facet normal -1.9463852e-1 -5.98341e-4 9.808749e-1
outer loop
vertex 1.5948578e2 1.3857872e2 7.0614376e0
vertex 1.5968315e2 1.3759096e2 7.1000004e0
vertex 1.5968011e2 1.3857872e2 7.1000004e0
endloop
endfacet
facet normal 1.5811577e-6 4.8606665e-9 1.0e0
outer loop
vertex 1.5968011e2 1.3857872e2 7.1000004e0
vertex 1.5968315e2 1.3759096e2 7.1000004e0
vertex 1.5998473e2 1.3759096e2 7.1e0
endloop
endfacet
facet normal 1.565396e-6 0.0e0 1.0e0
outer loop
vertex 1.5968011e2 1.3857872e2 7.1000004e0
vertex 1.5998473e2 1.3759096e2 7.1e0
vertex 1.5998473e2 1.3857872e2 7.1e0
endloop
endfacet
facet normal 9.988466e-1 5.986846e-3 4.764194e-2
outer loop
vertex 1.6107608e2 1.3759096e2 6.8633327e0
vertex 1.6107016e2 1.3857872e2 6.8633327e0
vertex 1.6106297e2 1.3857872e2 7.014011e0
endloop
endfacet
facet normal 9.999118e-1 1.3283351e-2 -9.724167e-5
outer loop
vertex 1.6107608e2 1.3759096e2 6.8633327e0
vertex 1.6106297e2 1.3857872e2 7.014011e0
vertex 1.610761e2 1.3759096e2 7.020235e0
endloop
endfacet
facet normal 5.6996745e-1 1.2749017e-2 8.2156837e-1
outer loop
vertex 1.610761e2 1.3759096e2 7.020235e0
vertex 1.6106297e2 1.3857872e2 7.014011e0
vertex 1.6093903e2 1.3857872e2 7.1e0
endloop
endfacet
facet normal 5.083686e-1 1.0056234e-3 8.61139e-1
outer loop
vertex 1.610761e2 1.3759096e2 7.020235e0
vertex 1.6093903e2 1.3857872e2 7.1e0
vertex 1.6094098e2 1.3759096e2 7.1000004e0
endloop
endfacet
facet normal 0.0e0 4.827448e-7 1.0e0
outer loop
vertex 1.6094098e2 1.3759096e2 7.1000004e0
vertex 1.6093903e2 1.3857872e2 7.1e0
vertex 1.6066846e2 1.3857872e2 7.1e0
endloop
endfacet
facet normal -1.74972e-6 0.0e0 1.0e0
outer loop
vertex 1.6094098e2 1.3759096e2 7.1000004e0
vertex 1.6066846e2 1.3857872e2 7.1e0
vertex 1.6066846e2 1.3759096e2 7.1e0
endloop
endfacet
facet normal -9.9679774e-1 -7.889238e-2 -1.3052119e-2
outer loop
vertex 1.5943793e2 1.392161e2 6.8633327e0
vertex 1.5948837e2 1.3857872e2 6.8633327e0
vertex 1.5948578e2 1.3857872e2 7.0614376e0
endloop
endfacet
facet normal 0.0e0 9.9999994e-1 0.0e0
outer loop
vertex 1.5948578e2 1.3857872e2 7.0614376e0
vertex 1.5968011e2 1.3857872e2 7.1000004e0
vertex 1.5998473e2 1.3857872e2 7.1e0
endloop
endfacet
facet normal -7.705754e-2 5.936689e-7 9.970266e-1
outer loop
vertex 1.5948578e2 1.3857872e2 7.0614376e0
vertex 1.5998473e2 1.3857872e2 7.1e0
vertex 1.5998473e2 1.3938123e2 7.0999994e0
endloop
endfacet
facet normal 1.0528128e-2 -5.4523364e-2 9.9845695e-1
outer loop
vertex 1.5948578e2 1.3857872e2 7.0614376e0
vertex 1.5998473e2 1.3938123e2 7.0999994e0
vertex 1.5963191e2 1.3931313e2 7.100001e0
endloop
endfacet
facet normal -1.5601017e-1 8.0827254e-1 5.677642e-1
outer loop
vertex 1.5998473e2 1.3938123e2 7.0999994e0
vertex 1.5998473e2 1.3954747e2 6.8633327e0
vertex 1.5963191e2 1.3931313e2 7.100001e0
endloop
endfacet
facet normal -1.2834303e-2 7.2002816e-1 6.938261e-1
outer loop
vertex 1.5998473e2 1.3954747e2 6.8633327e0
vertex 1.5961491e2 1.3954088e2 6.8633327e0
vertex 1.5963191e2 1.3931313e2 7.100001e0
endloop
endfacet
facet normal -7.779215e-1 4.2391878e-1 4.638224e-1
outer loop
vertex 1.5961491e2 1.3954088e2 6.8633327e0
vertex 1.5943793e2 1.392161e2 6.8633327e0
vertex 1.5963191e2 1.3931313e2 7.100001e0
endloop
endfacet
facet normal -7.919611e-1 1.2621765e-1 5.9738326e-1
outer loop
vertex 1.5943793e2 1.392161e2 6.8633327e0
vertex 1.5948578e2 1.3857872e2 7.0614376e0
vertex 1.5963191e2 1.3931313e2 7.100001e0
endloop
endfacet
facet normal -0.0e0 5.8824634e-7 1.0e0
outer loop
vertex 1.5998473e2 1.3857872e2 7.1e0
vertex 1.6066846e2 1.3857872e2 7.1e0
vertex 1.6066846e2 1.3938933e2 7.0999994e0
endloop
endfacet
facet normal -7.0412756e-9 5.941855e-7 1.0e0
outer loop
vertex 1.5998473e2 1.3857872e2 7.1e0
vertex 1.6066846e2 1.3938933e2 7.0999994e0
vertex 1.5998473e2 1.3938123e2 7.0999994e0
endloop
endfacet
facet normal -9.617753e-3 8.116043e-1 5.841283e-1
outer loop
vertex 1.5998473e2 1.3938123e2 7.0999994e0
vertex 1.6066846e2 1.3938933e2 7.0999994e0
vertex 1.6066846e2 1.3955966e2 6.8633327e0
endloop
endfacet
facet normal -1.4589612e-2 8.182051e-1 5.747413e-1
outer loop
vertex 1.5998473e2 1.3938123e2 7.0999994e0
vertex 1.6066846e2 1.3955966e2 6.8633327e0
vertex 1.5998473e2 1.3954747e2 6.8633327e0
endloop
endfacet
facet normal 0.0e0 5.882464e-7 1.0e0
outer loop
vertex 1.6066846e2 1.3938933e2 7.0999994e0
vertex 1.6066846e2 1.3857872e2 7.1e0
vertex 1.6093903e2 1.3857872e2 7.1e0
endloop
endfacet
facet normal 9.986464e-1 2.0890035e-2 4.7632396e-2
outer loop
vertex 1.6106297e2 1.3857872e2 7.014011e0
vertex 1.6107016e2 1.3857872e2 6.8633327e0
vertex 1.610503e2 1.3952846e2 6.8633327e0
endloop
endfacet
facet normal 8.302892e-1 9.812623e-2 5.4862666e-1
outer loop
vertex 1.6106297e2 1.3857872e2 7.014011e0
vertex 1.610503e2 1.3952846e2 6.8633327e0
vertex 1.6093703e2 1.3916364e2 7.1000004e0
endloop
endfacet
facet normal 4.3650847e-2 5.3414124e-1 8.4426767e-1
outer loop
vertex 1.610503e2 1.3952846e2 6.8633327e0
vertex 1.6066846e2 1.3955966e2 6.8633327e0
vertex 1.6093703e2 1.3916364e2 7.1000004e0
endloop
endfacet
facet normal 5.634738e-1 6.7052495e-1 4.8259056e-1
outer loop
vertex 1.6066846e2 1.3955966e2 6.8633327e0
vertex 1.6066846e2 1.3938933e2 7.0999994e0
vertex 1.6093703e2 1.3916364e2 7.1000004e0
endloop
endfacet
facet normal -4.248209e-6 -8.297424e-7 1.0e0
outer loop
vertex 1.6066846e2 1.3938933e2 7.0999994e0
vertex 1.6093903e2 1.3857872e2 7.1e0
vertex 1.6093703e2 1.3916364e2 7.1000004e0
endloop
endfacet
facet normal 5.700127e-1 1.9473035e-3 8.216335e-1
outer loop
vertex 1.6093903e2 1.3857872e2 7.1e0
vertex 1.6106297e2 1.3857872e2 7.014011e0
vertex 1.6093703e2 1.3916364e2 7.1000004e0
endloop
endfacet
facet normal 0.0e0 0.0e0 -9.9999994e-1
outer loop
vertex 1.599847e2 1.3067665e2 1.1920909e-7
vertex 1.599847e2 1.3857872e2 1.1920909e-7
vertex 1.6066843e2 1.3067665e2 1.1920909e-7
endloop
endfacet
facet normal 0.0e0 0.0e0 -9.9999994e-1
outer loop
vertex 1.6066843e2 1.3067665e2 1.1920909e-7
vertex 1.599847e2 1.3857872e2 1.1920909e-7
vertex 1.6066843e2 1.3857872e2 1.1920909e-7
endloop
endfacet
facet normal 9.019575e-3 -9.999594e-1 0.0e0
outer loop
vertex 1.6104572e2 1.2970177e2 2.1299996e0
vertex 1.6104572e2 1.2970177e2 5.916666e0
vertex 1.6066847e2 1.2969836e2 2.1299996e0
endloop
endfacet
facet normal 9.019575e-3 -9.999594e-1 0.0e0
outer loop
vertex 1.6066847e2 1.2969836e2 2.1299996e0
vertex 1.6104572e2 1.2970177e2 5.916666e0
vertex 1.6066847e2 1.2969836e2 5.916666e0
endloop
endfacet
facet normal 9.379087e-1 -3.4688225e-1 0.0e0
outer loop
vertex 1.6117659e2 1.300556e2 2.1299996e0
vertex 1.6117659e2 1.300556e2 5.916666e0
vertex 1.6104573e2 1.2970178e2 2.1299996e0
endloop
endfacet
facet normal 9.379087e-1 -3.4688225e-1 0.0e0
outer loop
vertex 1.6104573e2 1.2970178e2 2.1299996e0
vertex 1.6117659e2 1.300556e2 5.916666e0
vertex 1.6104573e2 1.2970178e2 5.916666e0
endloop
endfacet
facet normal -9.998952e-1 -1.4480134e-2 0.0e0
outer loop
vertex 1.594858e2 1.3857874e2 2.1299996e0
vertex 1.594858e2 1.3857874e2 5.916666e0
vertex 1.5947685e2 1.3919618e2 2.1299996e0
endloop
endfacet
facet normal -9.998952e-1 -1.4480134e-2 0.0e0
outer loop
vertex 1.5947685e2 1.3919618e2 2.1299996e0
vertex 1.594858e2 1.3857874e2 5.916666e0
vertex 1.5947685e2 1.3919618e2 5.916666e0
endloop
endfacet
facet normal -9.998953e-1 -1.44733265e-2 0.0e0
outer loop
vertex 1.5960008e2 1.3067665e2 2.1299996e0
vertex 1.5960008e2 1.3067665e2 5.916666e0
vertex 1.5958578e2 1.316644e2 2.1299996e0
endloop
endfacet
facet normal -9.998953e-1 -1.44733265e-2 0.0e0
outer loop
vertex 1.5958578e2 1.316644e2 2.1299996e0
vertex 1.5960008e2 1.3067665e2 5.916666e0
vertex 1.5958578e2 1.316644e2 5.916666e0
endloop
endfacet
facet normal -9.998952e-1 -1.4472655e-2 0.0e0
outer loop
vertex 1.5954294e2 1.3462766e2 2.1299996e0
vertex 1.5954294e2 1.3462766e2 5.916666e0
vertex 1.5952864e2 1.3561545e2 2.1299996e0
endloop
endfacet
facet normal -9.998952e-1 -1.4472655e-2 0.0e0
outer loop
vertex 1.5952864e2 1.3561545e2 2.1299996e0
vertex 1.5954294e2 1.3462766e2 5.916666e0
vertex 1.5952864e2 1.3561545e2 5.916666e0
endloop
endfacet
facet normal -9.998955e-1 -1.4458108e-2 0.0e0
outer loop
vertex 1.5952866e2 1.3561545e2 2.1299996e0
vertex 1.5952866e2 1.3561545e2 5.916666e0
vertex 1.5951437e2 1.3660318e2 2.1299996e0
endloop
endfacet
facet normal -9.998955e-1 -1.4458108e-2 0.0e0
outer loop
vertex 1.5951437e2 1.3660318e2 2.1299996e0
vertex 1.5952866e2 1.3561545e2 5.916666e0
vertex 1.5951437e2 1.3660318e2 5.916666e0
endloop
endfacet
facet normal -9.998955e-1 -1.4457883e-2 0.0e0
outer loop
vertex 1.5957153e2 1.3265216e2 2.1299996e0
vertex 1.5957153e2 1.3265216e2 5.916666e0
vertex 1.5955725e2 1.3363991e2 2.1299996e0
endloop
endfacet
facet normal -9.998955e-1 -1.4457883e-2 0.0e0
outer loop
vertex 1.5955725e2 1.3363991e2 2.1299996e0
vertex 1.5957153e2 1.3265216e2 5.916666e0
vertex 1.5955725e2 1.3363991e2 5.916666e0
endloop
endfacet
facet normal -9.998954e-1 -1.445766e-2 0.0e0
outer loop
vertex 1.5951437e2 1.366032e2 2.1299996e0
vertex 1.5951437e2 1.366032e2 5.916666e0
vertex 1.5948581e2 1.3857872e2 2.1299996e0
endloop
endfacet
facet normal -9.998954e-1 -1.445766e-2 0.0e0
outer loop
vertex 1.5948581e2 1.3857872e2 2.1299996e0
vertex 1.5951437e2 1.366032e2 5.916666e0
vertex 1.5948581e2 1.3857872e2 5.916666e0
endloop
endfacet
facet normal -9.9989545e-1 -1.4457437e-2 0.0e0
outer loop
vertex 1.5955722e2 1.3363991e2 2.1299996e0
vertex 1.5955722e2 1.3363991e2 5.916666e0
vertex 1.5954294e2 1.3462769e2 2.1299996e0
endloop
endfacet
facet normal -9.9989545e-1 -1.4457437e-2 0.0e0
outer loop
vertex 1.5954294e2 1.3462769e2 2.1299996e0
vertex 1.5955722e2 1.3363991e2 5.916666e0
vertex 1.5954294e2 1.3462769e2 5.916666e0
endloop
endfacet
facet normal -9.998955e-1 -1.4457883e-2 0.0e0
outer loop
vertex 1.595858e2 1.3166441e2 2.1299996e0
vertex 1.595858e2 1.3166441e2 5.916666e0
vertex 1.5957152e2 1.3265216e2 2.1299996e0
endloop
endfacet
facet normal -9.998955e-1 -1.4457883e-2 0.0e0
outer loop
vertex 1.5957152e2 1.3265216e2 2.1299996e0
vertex 1.595858e2 1.3166441e2 5.916666e0
vertex 1.5957152e2 1.3265216e2 5.916666e0
endloop
endfacet
facet normal 9.99911e-1 1.3339682e-2 -0.0e0
outer loop
vertex 1.6116829e2 1.3067665e2 2.1299996e0
vertex 1.6116829e2 1.3067665e2 5.916666e0
vertex 1.6117657e2 1.3005559e2 2.1299996e0
endloop
endfacet
facet normal 9.99911e-1 1.3339682e-2 -0.0e0
outer loop
vertex 1.6117657e2 1.3005559e2 2.1299996e0
vertex 1.6116829e2 1.3067665e2 5.916666e0
vertex 1.6117657e2 1.3005559e2 5.916666e0
endloop
endfacet
facet normal -9.292831e-1 3.693684e-1 0.0e0
outer loop
vertex 1.5947688e2 1.3919618e2 2.1299996e0
vertex 1.5947688e2 1.3919618e2 5.916666e0
vertex 1.5961389e2 1.3954088e2 2.1299996e0
endloop
endfacet
facet normal -9.292831e-1 3.693684e-1 0.0e0
outer loop
vertex 1.5961389e2 1.3954088e2 2.1299996e0
vertex 1.5947688e2 1.3919618e2 5.916666e0
vertex 1.5961389e2 1.3954088e2 5.916666e0
endloop
endfacet
facet normal -1.7828405e-2 9.9984103e-1 0.0e0
outer loop
vertex 1.5998473e2 1.3954745e2 2.1299996e0
vertex 1.5998473e2 1.3954745e2 6.8633327e0
vertex 1.6066846e2 1.3955965e2 2.1299996e0
endloop
endfacet
facet normal -1.7828405e-2 9.9984103e-1 0.0e0
outer loop
vertex 1.6066846e2 1.3955965e2 2.1299996e0
vertex 1.5998473e2 1.3954745e2 6.8633327e0
vertex 1.6066846e2 1.3955965e2 6.8633327e0
endloop
endfacet
facet normal -1.7828405e-2 9.998411e-1 0.0e0
outer loop
vertex 1.5998473e2 1.3954745e2 2.3666662e-1
vertex 1.5998473e2 1.3954745e2 1.1833332e0
vertex 1.6066846e2 1.3955965e2 2.3666662e-1
endloop
endfacet
facet normal -1.7828405e-2 9.998411e-1 0.0e0
outer loop
vertex 1.6066846e2 1.3955965e2 2.3666662e-1
vertex 1.5998473e2 1.3954745e2 1.1833332e0
vertex 1.6066846e2 1.3955965e2 1.1833332e0
endloop
endfacet
facet normal -1.7814636e-2 9.998413e-1 0.0e0
outer loop
vertex 1.5961389e2 1.3954086e2 2.1299996e0
vertex 1.5961389e2 1.3954086e2 5.916666e0
vertex 1.5998471e2 1.3954747e2 2.1299996e0
endloop
endfacet
facet normal -1.7814636e-2 9.998413e-1 0.0e0
outer loop
vertex 1.5998471e2 1.3954747e2 2.1299996e0
vertex 1.5961389e2 1.3954086e2 5.916666e0
vertex 1.5998471e2 1.3954747e2 5.916666e0
endloop
endfacet
facet normal 9.019574e-3 -9.999593e-1 0.0e0
outer loop
vertex 1.6104572e2 1.2970177e2 1.1833329e0
vertex 1.6104572e2 1.2970177e2 2.1299992e0
vertex 1.6066847e2 1.2969836e2 1.1833329e0
endloop
endfacet
facet normal 9.019574e-3 -9.999593e-1 0.0e0
outer loop
vertex 1.6066847e2 1.2969836e2 1.1833329e0
vertex 1.6104572e2 1.2970177e2 2.1299992e0
vertex 1.6066847e2 1.2969836e2 2.1299992e0
endloop
endfacet
facet normal 9.379087e-1 -3.4688222e-1 0.0e0
outer loop
vertex 1.6117657e2 1.300556e2 1.1833329e0
vertex 1.6117657e2 1.300556e2 2.1299992e0
vertex 1.6104572e2 1.2970178e2 1.1833329e0
endloop
endfacet
facet normal 9.379087e-1 -3.4688222e-1 0.0e0
outer loop
vertex 1.6104572e2 1.2970178e2 1.1833329e0
vertex 1.6117657e2 1.300556e2 2.1299992e0
vertex 1.6104572e2 1.2970178e2 2.1299992e0
endloop
endfacet
facet normal -9.998952e-1 -1.4480134e-2 0.0e0
outer loop
vertex 1.594858e2 1.3857874e2 1.1833329e0
vertex 1.594858e2 1.3857874e2 2.1299992e0
vertex 1.5947685e2 1.3919618e2 1.1833329e0
endloop
endfacet
facet normal -9.998952e-1 -1.4480134e-2 0.0e0
outer loop
vertex 1.5947685e2 1.3919618e2 1.1833329e0
vertex 1.594858e2 1.3857874e2 2.1299992e0
vertex 1.5947685e2 1.3919618e2 2.1299992e0
endloop
endfacet
facet normal -9.9989533e-1 -1.4473327e-2 0.0e0
outer loop
vertex 1.5960005e2 1.3067665e2 1.1833329e0
vertex 1.5960005e2 1.3067665e2 2.1299992e0
vertex 1.5958575e2 1.316644e2 1.1833329e0
endloop
endfacet
facet normal -9.9989533e-1 -1.4473327e-2 0.0e0
outer loop
vertex 1.5958575e2 1.316644e2 1.1833329e0
vertex 1.5960005e2 1.3067665e2 2.1299992e0
vertex 1.5958575e2 1.316644e2 2.1299992e0
endloop
endfacet
facet normal -9.998953e-1 -1.4472656e-2 0.0e0
outer loop
vertex 1.5954292e2 1.3462766e2 1.1833329e0
vertex 1.5954292e2 1.3462766e2 2.1299992e0
vertex 1.5952863e2 1.3561545e2 1.1833329e0
endloop
endfacet
facet normal -9.998953e-1 -1.4472656e-2 0.0e0
outer loop
vertex 1.5952863e2 1.3561545e2 1.1833329e0
vertex 1.5954292e2 1.3462766e2 2.1299992e0
vertex 1.5952863e2 1.3561545e2 2.1299992e0
endloop
endfacet
facet normal -9.9989545e-1 -1.4458107e-2 0.0e0
outer loop
vertex 1.5952863e2 1.3561545e2 1.1833329e0
vertex 1.5952863e2 1.3561545e2 2.1299992e0
vertex 1.5951434e2 1.3660318e2 1.1833329e0
endloop
endfacet
facet normal -9.9989545e-1 -1.4458107e-2 0.0e0
outer loop
vertex 1.5951434e2 1.3660318e2 1.1833329e0
vertex 1.5952863e2 1.3561545e2 2.1299992e0
vertex 1.5951434e2 1.3660318e2 2.1299992e0
endloop
endfacet
facet normal -9.9989545e-1 -1.4457882e-2 0.0e0
outer loop
vertex 1.5957149e2 1.3265216e2 1.1833329e0
vertex 1.5957149e2 1.3265216e2 2.1299992e0
vertex 1.595572e2 1.3363991e2 1.1833329e0
endloop
endfacet
facet normal -9.9989545e-1 -1.4457882e-2 0.0e0
outer loop
vertex 1.595572e2 1.3363991e2 1.1833329e0
vertex 1.5957149e2 1.3265216e2 2.1299992e0
vertex 1.595572e2 1.3363991e2 2.1299992e0
endloop
endfacet
facet normal -9.9989545e-1 -1.4457882e-2 0.0e0
outer loop
vertex 1.5951434e2 1.366032e2 1.1833329e0
vertex 1.5951434e2 1.366032e2 2.1299992e0
vertex 1.5950006e2 1.3759094e2 1.1833329e0
endloop
endfacet
facet normal -9.9989545e-1 -1.4457882e-2 0.0e0
outer loop
vertex 1.5950006e2 1.3759094e2 1.1833329e0
vertex 1.5951434e2 1.366032e2 2.1299992e0
vertex 1.5950006e2 1.3759094e2 2.1299992e0
endloop
endfacet
facet normal -9.998955e-1 -1.4457437e-2 0.0e0
outer loop
vertex 1.5955719e2 1.3363991e2 1.1833329e0
vertex 1.5955719e2 1.3363991e2 2.1299992e0
vertex 1.5954291e2 1.3462769e2 1.1833329e0
endloop
endfacet
facet normal -9.998955e-1 -1.4457437e-2 0.0e0
outer loop
vertex 1.5954291e2 1.3462769e2 1.1833329e0
vertex 1.5955719e2 1.3363991e2 2.1299992e0
vertex 1.5954291e2 1.3462769e2 2.1299992e0
endloop
endfacet
facet normal -9.998953e-1 -1.447288e-2 0.0e0
outer loop
vertex 1.5950008e2 1.3759094e2 1.1833329e0
vertex 1.5950008e2 1.3759094e2 2.1299992e0
vertex 1.5948578e2 1.3857872e2 1.1833329e0
endloop
endfacet
facet normal -9.998953e-1 -1.447288e-2 0.0e0
outer loop
vertex 1.5948578e2 1.3857872e2 1.1833329e0
vertex 1.5950008e2 1.3759094e2 2.1299992e0
vertex 1.5948578e2 1.3857872e2 2.1299992e0
endloop
endfacet
facet normal -9.9989545e-1 -1.4457882e-2 0.0e0
outer loop
vertex 1.5958577e2 1.3166441e2 1.1833329e0
vertex 1.5958577e2 1.3166441e2 2.1299992e0
vertex 1.5957149e2 1.3265216e2 1.1833329e0
endloop
endfacet
facet normal -9.9989545e-1 -1.4457882e-2 0.0e0
outer loop
vertex 1.5957149e2 1.3265216e2 1.1833329e0
vertex 1.5958577e2 1.3166441e2 2.1299992e0
vertex 1.5957149e2 1.3265216e2 2.1299992e0
endloop
endfacet
facet normal 9.9991095e-1 1.3339681e-2 -0.0e0
outer loop
vertex 1.6116826e2 1.3067665e2 1.1833329e0
vertex 1.6116826e2 1.3067665e2 2.1299992e0
vertex 1.6117654e2 1.3005559e2 1.1833329e0
endloop
endfacet
facet normal 9.9991095e-1 1.3339681e-2 -0.0e0
outer loop
vertex 1.6117654e2 1.3005559e2 1.1833329e0
vertex 1.6116826e2 1.3067665e2 2.1299992e0
vertex 1.6117654e2 1.3005559e2 2.1299992e0
endloop
endfacet
facet normal -9.29283e-1 3.6936843e-1 0.0e0
outer loop
vertex 1.5947687e2 1.3919618e2 1.1833329e0
vertex 1.5947687e2 1.3919618e2 2.1299992e0
vertex 1.5961388e2 1.3954088e2 1.1833329e0
endloop
endfacet
facet normal -9.29283e-1 3.6936843e-1 0.0e0
outer loop
vertex 1.5961388e2 1.3954088e2 1.1833329e0
vertex 1.5947687e2 1.3919618e2 2.1299992e0
vertex 1.5961388e2 1.3954088e2 2.1299992e0
endloop
endfacet
facet normal -1.7828407e-2 9.998411e-1 0.0e0
outer loop
vertex 1.5998473e2 1.3954745e2 1.1833329e0
vertex 1.5998473e2 1.3954745e2 2.1299992e0
vertex 1.6066846e2 1.3955965e2 1.1833329e0
endloop
endfacet
facet normal -1.7828407e-2 9.998411e-1 0.0e0
outer loop
vertex 1.6066846e2 1.3955965e2 1.1833329e0
vertex 1.5998473e2 1.3954745e2 2.1299992e0
vertex 1.6066846e2 1.3955965e2 2.1299992e0
endloop
endfacet
facet normal -1.7813902e-2 9.998413e-1 0.0e0
outer loop
vertex 1.5961389e2 1.3954083e2 1.1833329e0
vertex 1.5961389e2 1.3954083e2 2.1299992e0
vertex 1.5998473e2 1.3954744e2 1.1833329e0
endloop
endfacet
facet normal -1.7813902e-2 9.998413e-1 0.0e0
outer loop
vertex 1.5998473e2 1.3954744e2 1.1833329e0
vertex 1.5961389e2 1.3954083e2 2.1299992e0
vertex 1.5998473e2 1.3954744e2 2.1299992e0
endloop
endfacet
facet normal 8.1212625e-2 9.966968e-1 0.0e0
outer loop
vertex 1.610503e2 1.3952853e2 2.1299992e0
vertex 1.610503e2 1.3952853e2 1.1833329e0
vertex 1.6066846e2 1.3955965e2 2.1299992e0
endloop
endfacet
facet normal 8.1212625e-2 9.966968e-1 0.0e0
outer loop
vertex 1.6066846e2 1.3955965e2 2.1299992e0
vertex 1.610503e2 1.3952853e2 1.1833329e0
vertex 1.6066846e2 1.3955965e2 1.1833329e0
endloop
endfacet
facet normal 9.999111e-1 1.3330501e-2 0.0e0
outer loop
vertex 1.611419e2 1.3265215e2 2.1299992e0
vertex 1.611419e2 1.3265215e2 1.1833329e0
vertex 1.6112874e2 1.336399e2 2.1299992e0
endloop
endfacet
facet normal 9.999111e-1 1.3330501e-2 0.0e0
outer loop
vertex 1.6112874e2 1.336399e2 2.1299992e0
vertex 1.611419e2 1.3265215e2 1.1833329e0
vertex 1.6112874e2 1.336399e2 1.1833329e0
endloop
endfacet
facet normal 9.999111e-1 1.3330501e-2 0.0e0
outer loop
vertex 1.6110239e2 1.3561542e2 2.1299992e0
vertex 1.6110239e2 1.3561542e2 1.1833329e0
vertex 1.6108922e2 1.3660316e2 2.1299992e0
endloop
endfacet
facet normal 9.999111e-1 1.3330501e-2 0.0e0
outer loop
vertex 1.6108922e2 1.3660316e2 2.1299992e0
vertex 1.6110239e2 1.3561542e2 1.1833329e0
vertex 1.6108922e2 1.3660316e2 1.1833329e0
endloop
endfacet
facet normal 9.999112e-1 1.3330296e-2 0.0e0
outer loop
vertex 1.6112877e2 1.3363992e2 2.1299992e0
vertex 1.6112877e2 1.3363992e2 1.1833329e0
vertex 1.6110243e2 1.3561545e2 2.1299992e0
endloop
endfacet
facet normal 9.999112e-1 1.3330296e-2 0.0e0
outer loop
vertex 1.6110243e2 1.3561545e2 2.1299992e0
vertex 1.6112877e2 1.3363992e2 1.1833329e0
vertex 1.6110243e2 1.3561545e2 1.1833329e0
endloop
endfacet
facet normal 9.999111e-1 1.3330089e-2 0.0e0
outer loop
vertex 1.6116826e2 1.3067664e2 2.1299992e0
vertex 1.6116826e2 1.3067664e2 1.1833329e0
vertex 1.6115509e2 1.3166441e2 2.1299992e0
endloop
endfacet
facet normal 9.999111e-1 1.3330089e-2 0.0e0
outer loop
vertex 1.6115509e2 1.3166441e2 2.1299992e0
vertex 1.6116826e2 1.3067664e2 1.1833329e0
vertex 1.6115509e2 1.3166441e2 1.1833329e0
endloop
endfacet
facet normal 9.999112e-1 1.3330296e-2 0.0e0
outer loop
vertex 1.6108925e2 1.3660318e2 2.1299992e0
vertex 1.6108925e2 1.3660318e2 1.1833329e0
vertex 1.6106291e2 1.385787e2 2.1299992e0
endloop
endfacet
facet normal 9.999112e-1 1.3330296e-2 0.0e0
outer loop
vertex 1.6106291e2 1.385787e2 2.1299992e0
vertex 1.6108925e2 1.3660318e2 1.1833329e0
vertex 1.6106291e2 1.385787e2 1.1833329e0
endloop
endfacet
facet normal 9.9991137e-1 1.3316516e-2 0.0e0
outer loop
vertex 1.6106291e2 1.3857872e2 2.1299992e0
vertex 1.6106291e2 1.3857872e2 1.1833329e0
vertex 1.6105026e2 1.3952855e2 2.1299992e0
endloop
endfacet
facet normal 9.9991137e-1 1.3316516e-2 0.0e0
outer loop
vertex 1.6105026e2 1.3952855e2 2.1299992e0
vertex 1.6106291e2 1.3857872e2 1.1833329e0
vertex 1.6105026e2 1.3952855e2 1.1833329e0
endloop
endfacet
facet normal 9.9991137e-1 1.3315057e-2 0.0e0
outer loop
vertex 1.6115509e2 1.3166443e2 2.1299992e0
vertex 1.6115509e2 1.3166443e2 1.1833329e0
vertex 1.6114194e2 1.3265218e2 2.1299992e0
endloop
endfacet
facet normal 9.9991137e-1 1.3315057e-2 0.0e0
outer loop
vertex 1.6114194e2 1.3265218e2 2.1299992e0
vertex 1.6115509e2 1.3166443e2 1.1833329e0
vertex 1.6114194e2 1.3265218e2 1.1833329e0
endloop
endfacet
facet normal -9.998953e-1 -1.4475914e-2 -0.0e0
outer loop
vertex 1.5960007e2 1.3067665e2 2.1299992e0
vertex 1.5960007e2 1.3067665e2 1.1833329e0
vertex 1.5961365e2 1.2973862e2 2.1299992e0
endloop
endfacet
facet normal -9.998953e-1 -1.4475914e-2 -0.0e0
outer loop
vertex 1.5961365e2 1.2973862e2 2.1299992e0
vertex 1.5960007e2 1.3067665e2 1.1833329e0
vertex 1.5961365e2 1.2973862e2 1.1833329e0
endloop
endfacet
facet normal -1.2404479e-1 -9.9227667e-1 -0.0e0
outer loop
vertex 1.5961366e2 1.2973859e2 2.1299992e0
vertex 1.5961366e2 1.2973859e2 1.1833329e0
vertex 1.5998473e2 1.296922e2 2.1299992e0
endloop
endfacet
facet normal -1.2404479e-1 -9.9227667e-1 -0.0e0
outer loop
vertex 1.5998473e2 1.296922e2 2.1299992e0
vertex 1.5961366e2 1.2973859e2 1.1833329e0
vertex 1.5998473e2 1.296922e2 1.1833329e0
endloop
endfacet
facet normal 8.971051e-3 -9.9995977e-1 0.0e0
outer loop
vertex 1.5998471e2 1.2969221e2 2.1299992e0
vertex 1.5998471e2 1.2969221e2 1.1833329e0
vertex 1.6066844e2 1.2969835e2 2.1299992e0
endloop
endfacet
facet normal 8.971051e-3 -9.9995977e-1 0.0e0
outer loop
vertex 1.6066844e2 1.2969835e2 2.1299992e0
vertex 1.5998471e2 1.2969221e2 1.1833329e0
vertex 1.6066844e2 1.2969835e2 1.1833329e0
endloop
endfacet
facet normal 8.121263e-2 9.966968e-1 0.0e0
outer loop
vertex 1.610503e2 1.3952855e2 5.916666e0
vertex 1.610503e2 1.3952855e2 2.1299996e0
vertex 1.6066846e2 1.3955966e2 5.916666e0
endloop
endfacet
facet normal 8.121263e-2 9.966968e-1 0.0e0
outer loop
vertex 1.6066846e2 1.3955966e2 5.916666e0
vertex 1.610503e2 1.3952855e2 2.1299996e0
vertex 1.6066846e2 1.3955966e2 2.1299996e0
endloop
endfacet
facet normal 9.9991107e-1 1.33305e-2 0.0e0
outer loop
vertex 1.6114194e2 1.3265215e2 5.916666e0
vertex 1.6114194e2 1.3265215e2 2.1299996e0
vertex 1.6112877e2 1.336399e2 5.916666e0
endloop
endfacet
facet normal 9.9991107e-1 1.33305e-2 0.0e0
outer loop
vertex 1.6112877e2 1.336399e2 5.916666e0
vertex 1.6114194e2 1.3265215e2 2.1299996e0
vertex 1.6112877e2 1.336399e2 2.1299996e0
endloop
endfacet
facet normal 9.9991107e-1 1.33305e-2 0.0e0
outer loop
vertex 1.6110242e2 1.3561542e2 5.916666e0
vertex 1.6110242e2 1.3561542e2 2.1299996e0
vertex 1.6108925e2 1.3660316e2 5.916666e0
endloop
endfacet
facet normal 9.9991107e-1 1.33305e-2 0.0e0
outer loop
vertex 1.6108925e2 1.3660316e2 5.916666e0
vertex 1.6110242e2 1.3561542e2 2.1299996e0
vertex 1.6108925e2 1.3660316e2 2.1299996e0
endloop
endfacet
facet normal 9.999111e-1 1.3330295e-2 0.0e0
outer loop
vertex 1.6112878e2 1.3363992e2 5.916666e0
vertex 1.6112878e2 1.3363992e2 2.1299996e0
vertex 1.6110245e2 1.3561545e2 5.916666e0
endloop
endfacet
facet normal 9.999111e-1 1.3330295e-2 0.0e0
outer loop
vertex 1.6110245e2 1.3561545e2 5.916666e0
vertex 1.6112878e2 1.3363992e2 2.1299996e0
vertex 1.6110245e2 1.3561545e2 2.1299996e0
endloop
endfacet
facet normal 9.999111e-1 1.3330295e-2 0.0e0
outer loop
vertex 1.6108926e2 1.3660318e2 5.916666e0
vertex 1.6108926e2 1.3660318e2 2.1299996e0
vertex 1.6106293e2 1.385787e2 5.916666e0
endloop
endfacet
facet normal 9.999111e-1 1.3330295e-2 0.0e0
outer loop
vertex 1.6106293e2 1.385787e2 5.916666e0
vertex 1.6108926e2 1.3660318e2 2.1299996e0
vertex 1.6106293e2 1.385787e2 2.1299996e0
endloop
endfacet
facet normal 9.999112e-1 1.333009e-2 0.0e0
outer loop
vertex 1.6116826e2 1.3067664e2 5.916666e0
vertex 1.6116826e2 1.3067664e2 2.1299996e0
vertex 1.6115509e2 1.3166441e2 5.916666e0
endloop
endfacet
facet normal 9.999112e-1 1.333009e-2 0.0e0
outer loop
vertex 1.6115509e2 1.3166441e2 5.916666e0
vertex 1.6116826e2 1.3067664e2 2.1299996e0
vertex 1.6115509e2 1.3166441e2 2.1299996e0
endloop
endfacet
facet normal 9.9991137e-1 1.3316517e-2 0.0e0
outer loop
vertex 1.6106293e2 1.3857872e2 5.916666e0
vertex 1.6106293e2 1.3857872e2 2.1299996e0
vertex 1.6105028e2 1.3952855e2 5.916666e0
endloop
endfacet
facet normal 9.9991137e-1 1.3316517e-2 0.0e0
outer loop
vertex 1.6105028e2 1.3952855e2 5.916666e0
vertex 1.6106293e2 1.3857872e2 2.1299996e0
vertex 1.6105028e2 1.3952855e2 2.1299996e0
endloop
endfacet
facet normal 9.999113e-1 1.3315056e-2 0.0e0
outer loop
vertex 1.6115512e2 1.3166443e2 5.916666e0
vertex 1.6115512e2 1.3166443e2 2.1299996e0
vertex 1.6114197e2 1.3265218e2 5.916666e0
endloop
endfacet
facet normal 9.999113e-1 1.3315056e-2 0.0e0
outer loop
vertex 1.6114197e2 1.3265218e2 5.916666e0
vertex 1.6115512e2 1.3166443e2 2.1299996e0
vertex 1.6114197e2 1.3265218e2 2.1299996e0
endloop
endfacet
facet normal -9.9989516e-1 -1.4475913e-2 -0.0e0
outer loop
vertex 1.596001e2 1.3067665e2 5.916666e0
vertex 1.596001e2 1.3067665e2 2.1299996e0
vertex 1.5961368e2 1.2973862e2 5.916666e0
endloop
endfacet
facet normal -9.9989516e-1 -1.4475913e-2 -0.0e0
outer loop
vertex 1.5961368e2 1.2973862e2 5.916666e0
vertex 1.596001e2 1.3067665e2 2.1299996e0
vertex 1.5961368e2 1.2973862e2 2.1299996e0
endloop
endfacet
facet normal -1.24044776e-1 -9.9227667e-1 -0.0e0
outer loop
vertex 1.5961366e2 1.297386e2 5.916666e0
vertex 1.5961366e2 1.297386e2 2.1299996e0
vertex 1.5998473e2 1.2969221e2 5.916666e0
endloop
endfacet
facet normal -1.24044776e-1 -9.9227667e-1 -0.0e0
outer loop
vertex 1.5998473e2 1.2969221e2 5.916666e0
vertex 1.5961366e2 1.297386e2 2.1299996e0
vertex 1.5998473e2 1.2969221e2 2.1299996e0
endloop
endfacet
facet normal 8.971051e-3 -9.9995977e-1 0.0e0
outer loop
vertex 1.5998471e2 1.2969223e2 1.1833332e0
vertex 1.5998471e2 1.2969223e2 2.3666662e-1
vertex 1.6066844e2 1.2969836e2 1.1833332e0
endloop
endfacet
facet normal 8.971051e-3 -9.9995977e-1 0.0e0
outer loop
vertex 1.6066844e2 1.2969836e2 1.1833332e0
vertex 1.5998471e2 1.2969223e2 2.3666662e-1
vertex 1.6066844e2 1.2969836e2 2.3666662e-1
endloop
endfacet
facet normal 8.971051e-3 -9.9995977e-1 0.0e0
outer loop
vertex 1.5998471e2 1.2969223e2 6.8633327e0
vertex 1.5998471e2 1.2969223e2 2.1299996e0
vertex 1.6066844e2 1.2969836e2 6.8633327e0
endloop
endfacet
facet normal 8.971051e-3 -9.9995977e-1 0.0e0
outer loop
vertex 1.6066844e2 1.2969836e2 6.8633327e0
vertex 1.5998471e2 1.2969223e2 2.1299996e0
vertex 1.6066844e2 1.2969836e2 2.1299996e0
endloop
endfacet
facet normal -0.0e0 0.0e0 9.9999994e-1
outer loop
vertex 1.599847e2 1.3857872e2 7.099999e0
vertex 1.599847e2 1.3067665e2 7.099999e0
vertex 1.6066843e2 1.3857872e2 7.099999e0
endloop
endfacet
facet normal 0.0e0 0.0e0 9.9999994e-1
outer loop
vertex 1.6066843e2 1.3857872e2 7.099999e0
vertex 1.599847e2 1.3067665e2 7.099999e0
vertex 1.6066843e2 1.3067665e2 7.099999e0
endloop
endfacet
endsolid ImplictCADExport
